<ttFont>
          <CharString index="0">
            282 518 rmoveto
            -173 -94 -73 -192 -195 94 -71 173 173 94 71 195 192 -94 73 -173 hvcurveto
            -350 vmoveto
            -31 -10 20 65 64 10 20 31 31 10 -19 -65 -65 -10 -20 -31 hvcurveto
            return
          </CharString>
          <CharString index="1">
            rmoveto
            -87 -68 -24 -79 -55 20 -16 33 -20 hvcurveto
            hintmask 11100100
            -36 -22 -24 -13 -57 vvcurveto
            -88 76 -23 86 86 76 18 91 59 -20 14 -40 20 vhcurveto
            hintmask 11101000
            35 21 19 17 54 vvcurveto
            hintmask 11011000
            89 -69 14 -87 vhcurveto
            hintmask 11100100
            -299 vmoveto
            -15 -8 8 18 21 16 13 0 hvcurveto
            15 hlineto
            0 15 -13 -21 vvcurveto
            -20 -7 -6 -16 vhcurveto
            hintmask 11011000
            203 vmoveto
            15 4 -10 -16 -18 -11 -11 0 hvcurveto
            -15 hlineto
            0 -11 11 18 vvcurveto
            16 3 10 15 vhcurveto
            endchar
          </CharString>
          <CharString index="2">
            3 142 -7 2 -13 6 -4 3 rlinecurve
            -224 41 rmoveto
            -37 vlineto
            0 -17 -15 -21 -16 -6 8 14 16 10 11 16 1 vhcurveto
            return
          </CharString>
          <CharString index="3">
            228 hlineto
            16 77 rlineto
            153 hlineto
            19 -77 rlineto
            234 hlineto
            -151 670 rlineto
            -351 hlineto
            164 -182 rmoveto
            25 hlineto
            36 -234 rlineto
            -99 hlineto
            return
          </CharString>
          <CharString index="4">
            258 0 callsubr
            -232 -430 hlineto
            -195 100 -58 195 195 99 62 195 vhcurveto
            426 -232 -439 vlineto
            -38 -16 -15 -46 -46 -17 15 38 vhcurveto
            return
          </CharString>
          <CharString index="5">
            78 224 hintmask 01111100
            325 -9 callsubr
            hintmask 10111100
            -319 vlineto
            0 -22 -6 -22 -24 -10 18 61 vhcurveto
            246 -224 -261 vlineto
            hintmask 01111100
            -173 45 -84 145 50 64 37 0 vhcurveto
            hintmask 10111100
            -24 222 505 vlineto
            return
          </CharString>
          <CharString index="6">
            -35 callsubr
            136 hstemhm
            -1 callgsubr
            hintmask 10111000
            -34 callsubr
            hvcurveto
            hintmask 11111000
            103 11 57 74 77 8 -57 -103 vhcurveto
            hintmask 10111000
            -102 -9 -58 -76 vhcurveto
            -188 vmoveto
            223 96 104 244 hvcurveto
            hintmask 11111000
            244 -96 104 -223 -223 -96 -104 -244 vhcurveto
            hintmask 10111000
            -244 99 -104 220 vhcurveto
            return
          </CharString>
          <CharString index="7">
            rmoveto
            hintmask 11110000
            0 55 5 40 24 16 -4 -14 -12 -9 -6 -22 vhcurveto
            -77 -102 hlineto
            hintmask 11101000
            82 hlineto
            24 -2 7 -5 -12 vvcurveto
            -18 -16 -1 -24 -36 -67 6 0 vhcurveto
            -3 -101 rlineto
            0 78 -16 54 99 55 27 101 43 -15 17 -26 20 vhcurveto
            hintmask 11110000
            26 18 10 18 43 vvcurveto
            85 -53 25 -110 -40 -75 -16 0 vhcurveto
            endchar
          </CharString>
          <CharString index="8">
            rmoveto
            -26 -3 -11 -19 -30 hhcurveto
            -30 -11 19 26 -3 hvcurveto
            -116 -10 rlineto
            return
          </CharString>
          <CharString index="9">
            vstem
            10 -9 callsubr
            60 -505 rlineto
            305 hlineto
            19 218 17 -218 rlineto
            319 hlineto
            51 505 rlineto
            -221 hlineto
            -11 -318 rlineto
            -12 hlineto
            -32 305 rlineto
            -203 hlineto
            -23 -305 rlineto
            -12 hlineto
            -10 318 rlineto
            return
          </CharString>
          <CharString index="10">
            rmoveto
            hintmask 11100000
            -121 -40 -56 -142 -142 37 -57 124 hvcurveto
            hintmask 11010000
            124 36 57 142 142 -35 56 -125 hvcurveto
            -118 vmoveto
            hintmask 11100000
            17 0 3 -2 0 -78 0 -77 -4 -3 0 flex1
            hintmask 11010000
            -16 0 -4 3 0 77 0 78 5 callgsubr
          </CharString>
          <CharString index="11">
            rmoveto
            -43 -166 rlineto
            171 -6 callsubr
            166 rlineto
            return
          </CharString>
          <CharString index="12">
            hstemhm
            12 183 -178 210 78 210 -168 203 hintmask 1100111001000000
            293 -220 -71 callsubr
            hintmask 1110110010000000
            -87 callgsubr
            hintmask 1101010110000000
            -83 callgsubr
            hintmask 1100111001000000
            -89 callsubr
            hintmask 1111010110000000
            -78 callsubr
            return
          </CharString>
          <CharString index="13">
            30 hmoveto
            502 185 -270 60 210 183 -210 57 270 185 -502 hlineto
            return
          </CharString>
          <CharString index="14">
            117 2 34 99 91 144 -13 0 vhcurveto
            175 vlineto
            0 -140 34 -115 -225 -90 -86 -261 -238 60 -107 255 79 181 29 0 vhcurveto
            374 -247 vlineto
            return
          </CharString>
          <CharString index="15">
            rmoveto
            304 -156 110 -325 -316 -188 -110 -358 -341 104 -139 390 48 98 9 0 vhcurveto
            -3 153 rlineto
            0 -103 -10 -40 -257 -80 46 282 269 120 47 227 232 82 -47 -214 vhcurveto
            -18 vlineto
            -109 -5 -21 -30 -29 -12 22 110 vhcurveto
            192 -224 -25 vlineto
            0 -48 38 -70 vhcurveto
            hintmask 1011011111000000
            -119 -65 -80 -180 -170 60 -75 149 65 51 25 28 37 hvcurveto
            hintmask 1100111111000000
            -36 37 55 -17 82 hhcurveto
            181 52 70 228 hvcurveto
            hintmask 1010111111000000
            -508 -120 rmoveto
            -26 -9 17 55 62 12 12 36 13 15 -4 0 hvcurveto
            -41 vlineto
            -33 1 -30 4 -27 vhcurveto
            -7 -18 -17 -4 -11 hhcurveto
            endchar
          </CharString>
          <CharString index="16">
            -34 callsubr
            103 11 57 74 77 8 -57 -103 -102 -9 -58 -76 hvcurveto
            -188 vmoveto
            223 96 104 244 244 -96 104 -223 -223 -96 -104 -244 -244 99 -104 220 hvcurveto
            return
          </CharString>
          <CharString index="17">
            -61 callgsubr
            105 234 vstem
            319 173 rmoveto
            38 -173 rlineto
            236 hlineto
            -66 228 rlineto
            48 39 26 62 94 vvcurveto
            201 -94 46 -195 vhcurveto
            -282 -670 232 173 56 hlineto
            return
          </CharString>
          <CharString index="18">
            -122 115 -17 166 vhcurveto
            -12 185 rmoveto
            50 16 -1 -14 -12 -17 -4 -56 -52 -27 3 10 11 0 6 9 5 hvcurveto
            0 33 -4 44 vhcurveto
            return
          </CharString>
          <CharString index="19">
            -260 rmoveto
            162 hlineto
            62 215 rlineto
            -204 hlineto
            return
          </CharString>
          <CharString index="20">
            rmoveto
            164 154 -164 hlineto
            -210 -154 rmoveto
            164 154 -164 hlineto
            endchar
          </CharString>
          <CharString index="21">
            -68 callsubr
            72 166 hstemhm
            1 545 hintmask 10111100
            -81 callsubr
            hintmask 11011100
            -66 callsubr
            return
          </CharString>
          <CharString index="22">
            232 273 15 hlineto
            152 -273 rlineto
            229 670 -232 -254 -14 hlineto
            -154 254 rlineto
            -228 hlineto
            return
          </CharString>
          <CharString index="23">
            -106 vmoveto
            16 0 2 -2 0 -70 0 -70 -3 -2 0 flex1
            -14 0 -4 2 0 70 0 70 3 2 0 flex1
            return
          </CharString>
          <CharString index="24">
            rmoveto
            109 -166 rlineto
            171 hlineto
            -43 -9 callgsubr
          </CharString>
          <CharString index="25">
            vstem
            19 481 rmoveto
            222 -17 hlineto
            -222 -284 rlineto
            -180 530 189 -217 17 vlineto
            217 275 rlineto
            189 -530 vlineto
            return
          </CharString>
          <CharString index="26">
            86 hmoveto
            158 hlineto
            -63 -195 rlineto
            246 hlineto
            119 700 rlineto
            -225 hlineto
            return
          </CharString>
          <CharString index="27">
            rmoveto
            59 -13 27 -43 24 vhcurveto
            43 24 13 22 70 vvcurveto
            hintmask 10110000
            29 -3 19 33 vvcurveto
            50 10 8 61 5 vhcurveto
            180 vlineto
            -178 -120 -13 -162 hvcurveto
            -37 13 -88 -28 vvcurveto
            -16 -15 -13 -29 -5 vhcurveto
            -169 vlineto
            29 -6 15 -14 -20 -25 -13 -88 -39 vvcurveto
            -155 118 -17 180 vhcurveto
            180 vlineto
            -61 5 -10 12 50 vvcurveto
            hintmask 01010000
            33 3 35 30 vvcurveto
            endchar
          </CharString>
          <CharString index="28">
            -28 -58 32 -61 hhcurveto
            -53 -54 -59 0 hvcurveto
            29 -106 rlineto
            0 52 25 28 vhcurveto
            return
          </CharString>
          <CharString index="29">
            -15 338 rmoveto
            -27 -12 9 27 27 12 9 27 27 12 -9 -27 -27 -12 -9 -27 hvcurveto
            return
          </CharString>
          <CharString index="30">
            hstem
            -41 callsubr
            vstem
            28 hmoveto
            224 -18 callsubr
            hlineto
            return
          </CharString>
          <CharString index="31">
            -12 -13 165 35 122 53 156 return
          </CharString>
          <CharString index="32">
            hintmask 11011000
            24 310 rmoveto
            148 hlineto
            -148 -127 rlineto
            -183 454 195 -156 vlineto
            hintmask 10111000
            153 137 rlineto
            hintmask 11011000
            173 -451 vlineto
            return
          </CharString>
          <CharString index="33">
            rmoveto
            36 -128 83 34 rlineto
            -221 157 397 -135 vlineto
            return
          </CharString>
          <CharString index="34">
            -99 callgsubr
            -5 callsubr
            return
          </CharString>
          <CharString index="35">
            29 9 -3 -17 -15 -8 -7 -30 -17 -31 1 0 hvcurveto
            return
          </CharString>
          <CharString index="36">
            rmoveto
            159 98 70 128 121 -48 39 -140 -105 -26 2 8 hvcurveto
            return
          </CharString>
          <CharString index="37">
            -15 0 185 60 183 57 185 return
          </CharString>
          <CharString index="38">
            14 21 10 callsubr
            59 166 -31 callgsubr
            hintmask 11011100
            252 hmoveto
            -72 callgsubr
            hintmask 10111100
            -31 callsubr
            hintmask 11011100
            -49 callgsubr
            return
          </CharString>
          <CharString index="39">
            -18 -174 -21 195 187 -166 -21 505 -20 return
          </CharString>
          <CharString index="40">
            rmoveto
            129 -15 hlineto
            -98 -221 132 -27 104 267 rlineto
            130 -267 vlineto
            endchar
          </CharString>
          <CharString index="41">
            -32 -318 rlineto
            -14 hlineto
            -36 318 rlineto
            -238 hlineto
            return
          </CharString>
          <CharString index="42">
            0 -25 -4 -21 -16 -6 9 13 return
          </CharString>
          <CharString index="43">
            183 722 rmoveto
            -21 5 -18 10 -13 vhcurveto
            -55 hlineto
            -148 -670 rlineto
            228 hlineto
            16 77 rlineto
            153 hlineto
            19 -77 rlineto
            234 hlineto
            -151 670 rlineto
            -53 hlineto
            10 14 6 17 21 vvcurveto
            -22 callsubr
            return
          </CharString>
          <CharString index="44">
            111 38 102 36 110 hstemhm
            174 140 -135 140 hintmask 11101000
            39 return
          </CharString>
          <CharString index="45">
            rmoveto
            81 181 -81 100 -224 -100 -39 -181 39 -156 hlineto
            -143 53 -38 120 46 86 18 0 vhcurveto
            return
          </CharString>
          <CharString index="46">
            -61 callgsubr
            142 234 vstem
            323 hmoveto
            233 82 122 223 223 -92 102 -233 hvcurveto
            -283 -670 hlineto
            374 345 rmoveto
            -98 -6 -58 -95 vhcurveto
            -41 292 41 hlineto
            90 11 -43 -93 hvcurveto
            return
          </CharString>
          <CharString index="47">
            rmoveto
            -33 -166 rlineto
            136 hlineto
            89 166 rlineto
            28 hmoveto
            -33 -166 rlineto
            136 hlineto
            89 -9 callgsubr
          </CharString>
          <CharString index="48">
            321 113 73 -20 hstem
            176 147 vstem
            176 273 rmoveto
            147 48 15 113 -15 73 hlineto
            -67 callgsubr
            -37 callsubr
            endchar
          </CharString>
          <CharString index="49">
            104 hmoveto
            -84 callgsubr
            return
          </CharString>
          <CharString index="50">
            rmoveto
            -42 -16 -25 -33 vhcurveto
            -57 131 51 hlineto
            38 17 -22 -42 hvcurveto
            endchar
          </CharString>
          <CharString index="51">
            119 160 118 hstemhm
            14 161 0 160 hintmask 11010000
            175 return
          </CharString>
          <CharString index="52">
            -108 -36 -50 -128 -128 33 -51 111 hvcurveto
            return
          </CharString>
          <CharString index="53">
            rmoveto
            -160 74 -161 -235 rlineto
            -21 vlineto
            159 -230 162 74 -114 169 rlineto
            return
          </CharString>
          <CharString index="54">
            30 hmoveto
            232 670 -232 hlineto
            return
          </CharString>
          <CharString index="55">
            rmoveto
            30 -50 hlineto
            0 -21 -1 -13 -77 -14 50 105 return
          </CharString>
          <CharString index="56">
            rmoveto
            0 -56 -39 -26 vhcurveto
            return
          </CharString>
          <CharString index="57">
            30 232 return
          </CharString>
          <CharString index="58">
            rmoveto
            321 136 -321 hlineto
            endchar
          </CharString>
          <CharString index="59">
            15 226 82 226 return
          </CharString>
          <CharString index="60">
            -48 -90 44 -51 hhcurveto
            -73 -54 -53 0 hvcurveto
            10 -172 rlineto
            0 61 40 48 vhcurveto
            return
          </CharString>
          <CharString index="61">
            148 30 vlineto
            47 -148 rlineto
            224 hlineto
            -78 261 72 244 rlineto
            -221 hlineto
            -45 -162 rlineto
            -29 347 -224 -690 hlineto
            endchar
          </CharString>
          <CharString index="62">
            -3 174 rlineto
            0 -25 -1 -20 -28 -5 10 32 vhcurveto
            return
          </CharString>
          <CharString index="63">
            17 234 94.5 246.5 return
          </CharString>
          <CharString index="64">
            rmoveto
            0 -99 -189 -260 vvcurveto
            -260 99 -166 0 vhcurveto
            203 hlineto
            0 -75 210 216 vvcurveto
            219 75 230 0 vhcurveto
            endchar
          </CharString>
          <CharString index="65">
            rmoveto
            0 99 189 260 vvcurveto
            260 -99 166 0 vhcurveto
            -203 hlineto
            0 75 -210 -216 vvcurveto
            -219 -75 -230 0 vhcurveto
            endchar
          </CharString>
          <CharString index="66">
            28 224 return
          </CharString>
          <CharString index="67">
            366 hmoveto
            499 185 -273 63 213 177 -213 60 273 185 -722 hlineto
            -148 -670 rlineto
            228 hlineto
            return
          </CharString>
          <CharString index="68">
            105.5 50.5 140 return
          </CharString>
          <CharString index="69">
            -64 0 195 115 195 -173 173 return
          </CharString>
          <CharString index="70">
            -54 -251 rlineto
            -98 163 vlineto
            return
          </CharString>
          <CharString index="71">
            rmoveto
            -74 -11 57 103 return
          </CharString>
          <CharString index="72">
            -58 callgsubr
            30 return
          </CharString>
          <CharString index="73">
            335 175 -36 callsubr
            return
          </CharString>
          <CharString index="74">
            180 -180 895 -180 180 hstemhm
            return
          </CharString>
          <CharString index="75">
            -12 107 144 106 -34 107 144 106 24 -20 29 -20 hstemhm
            17 144 0 144 56 144 0 144 return
          </CharString>
          <CharString index="76">
            198 -51 67 -143 vhcurveto
            return
          </CharString>
          <CharString index="77">
            84 43 32 76 hvcurveto
            endchar
          </CharString>
          <CharString index="78">
            190 51 162 93 196 return
          </CharString>
          <CharString index="79">
            228 0 187 318 -20 return
          </CharString>
          <CharString index="80">
            -26 callgsubr
            66 -21 return
          </CharString>
          <CharString index="81">
            0 -8 -19 -10 -23 vhcurveto
            -9 -9 1 -10 hhcurveto
            -223 -96 -104 -244 -134 30 -92 63 -56 hvcurveto
            return
          </CharString>
          <CharString index="82">
            3 26 rlineto
            175 118 hlineto
            endchar
          </CharString>
          <CharString index="83">
            21 468 rmoveto
            -84 callgsubr
            endchar
          </CharString>
          <CharString index="84">
            -21 173 183 131 183 return
          </CharString>
          <CharString index="85">
            69 -59 27 -78 -79 -58 -27 -69 vhcurveto
            return
          </CharString>
          <CharString index="86">
            rmoveto
            37 1 8 16 30 hhcurveto
            27 12 -13 -40 hvcurveto
            return
          </CharString>
          <CharString index="87">
            -11 callsubr
            60 224 return
          </CharString>
          <CharString index="88">
            161 201 169 return
          </CharString>
          <CharString index="89">
            505 -224 return
          </CharString>
          <CharString index="90">
            107 -16 callgsubr
          </CharString>
          <CharString index="91">
            rmoveto
            -10 callsubr
          </CharString>
          <CharString index="92">
            rmoveto
            176 hlineto
            31 250 rlineto
            -239 hlineto
            return
          </CharString>
          <CharString index="93">
            rmoveto
            185 hlineto
            79 296 rlineto
            -242 hlineto
            return
          </CharString>
          <CharString index="94">
            104 hstemhm
            23 123 59 123 return
          </CharString>
          <CharString index="95">
            14 -14 191 315 191 return
          </CharString>
          <CharString index="96">
            hstemhm
            10 224 return
          </CharString>
          <CharString index="97">
            -31 -10 20 65 64 10 20 31 31 10 -19 -65 -65 -10 -20 -31 hvcurveto
            endchar
          </CharString>
          <CharString index="98">
            505 rmoveto
            return
          </CharString>
          <CharString index="99">
            112 32 51 128 return
          </CharString>
          <CharString index="100">
            128 -31 50 -113 return
          </CharString>
          <CharString index="101">
            hlineto
            109 return
          </CharString>
          <CharString index="102">
            39 166 return
          </CharString>
          <CharString index="103">
            72 53 15 22 48 vvcurveto
            48 -23 31 0 vhcurveto
            -175 hlineto
            -1 -19 rlineto
            return
          </CharString>
          <CharString index="104">
            rmoveto
            0 -158 26 -107 vhcurveto
            return
          </CharString>
          <CharString index="105">
            181 510 181 hstem
            return
          </CharString>
          <CharString index="106">
            164 46 164 return
          </CharString>
          <CharString index="107">
            670 rmoveto
            return
          </CharString>
          <CharString index="108">
            -14 57 170 55 170 hstem
            59 432 vstem
            59 282 rmoveto
            return
          </CharString>
          <CharString index="109">
            rmoveto
            -289 -872 289 181 -64 510 64 hlineto
            endchar
          </CharString>
          <CharString index="110">
            161 -113 113 hstemhm
            177 147 hintmask 10100000
            177 return
          </CharString>
          <CharString index="111">
            318 0 185 -108 179 -8 177 60 185 return
          </CharString>
          <CharString index="112">
            -13 191 return
          </CharString>
          <CharString index="113">
            21 -21 712 -2 callgsubr
            -50 callsubr
            return
          </CharString>
          <CharString index="114">
            137 198 -137 178 -226 -178 -137 return
          </CharString>
          <CharString index="115">
            hstemhm
            15 224 -224 523 return
          </CharString>
          <CharString index="116">
            -284 -199 -21 725 -20 return
          </CharString>
          <CharString index="117">
            -21 479 26 13 -20 return
          </CharString>
          <CharString index="118">
            713 136 hstem
            return
          </CharString>
          <CharString index="119">
            rmoveto
            -152 67 -55 157 102 113 37 0 vhcurveto
            return
          </CharString>
          <CharString index="120">
            0 -13 181 -159 -21 349 181 0 -20 return
          </CharString>
          <CharString index="121">
            191 -170 -21 337 181 hstemhm
            49 224 return
          </CharString>
          <CharString index="122">
            62 vstem
            23 434 rmoveto
            -160 117 -124 return
          </CharString>
          <CharString index="123">
            38 101 -44 52 hhcurveto
            68 48 53 0 hvcurveto
            endchar
          </CharString>
          <CharString index="124">
            75 21 -21 77 177 446 -20 63 75 return
          </CharString>
          <CharString index="125">
            -10 callgsubr
            78 224 return
          </CharString>
          <CharString index="126">
            198 hstem
            31 228 vstem
            return
          </CharString>
          <CharString index="127">
            122 92 -102 -122 -124 -90 -100 return
          </CharString>
          <CharString index="128">
            rmoveto
            500 197 -500 hlineto
            endchar
          </CharString>
          <CharString index="129">
            rmoveto
            298 181 -298 hlineto
            endchar
          </CharString>
        <CharString name=".notdef">
          -329 endchar
        </CharString>
        <CharString name=".null">
          -564 endchar
        </CharString>
        <CharString name="A">
          -70 callgsubr
          hstem
          -5 650 vstem
          -5 hmoveto
          -104 callsubr
          endchar
        </CharString>
        <CharString name="AE">
          4 callsubr
          hstemhm
          366 226 hintmask 10111000
          -40 callsubr
          hintmask 01011000
          4 callgsubr
          endchar
        </CharString>
        <CharString name="AEacute">
          4 callsubr
          43 136 hstemhm
          366 226 hintmask 10111100
          -40 callsubr
          hintmask 01011100
          4 callgsubr
          121 593 -95 callgsubr
          endchar
        </CharString>
        <CharString name="Aacute">
          -70 callgsubr
          43 136 hstem
          -5 650 vstem
          -5 hmoveto
          -104 callsubr
          -42 595 -95 callgsubr
          endchar
        </CharString>
        <CharString name="Abreve">
          -70 callgsubr
          42 115 hstem
          -5 650 vstem
          -5 hmoveto
          -104 callsubr
          95 618 -99 callsubr
          -75 35 -75 125 125 35 75 75 vhcurveto
          endchar
        </CharString>
        <CharString name="Acircumflex">
          -70 callgsubr
          43 136 hstem
          -5 650 vstem
          -5 hmoveto
          -104 callsubr
          -131 459 -100 callgsubr
        </CharString>
        <CharString name="Adieresis">
          -70 callgsubr
          43 144 hstem
          136 12 callgsubr
          vstem
          -5 hmoveto
          -104 callsubr
          74 459 -86 callgsubr
        </CharString>
        <CharString name="Agrave">
          -70 callgsubr
          43 136 hstem
          -5 650 vstem
          147 849 -73 callgsubr
          -394 -849 rmoveto
          -104 callsubr
          endchar
        </CharString>
        <CharString name="Amacron">
          -70 callgsubr
          43 136 hstemhm
          -5 650 -486 321 hintmask 11111000
          -5 hmoveto
          -104 callsubr
          hintmask 11110100
          -110 459 -49 callsubr
        </CharString>
        <CharString name="Aogonek">
          75 -219 115 125 -21 77 177 234 182 hstem
          -5 650 vstem
          631 -100 rmoveto
          -65 callsubr
          33 71 44 9 5 vhcurveto
          2 1 hlineto
          -151 669 rlineto
          -351 hlineto
          -148 -670 rlineto
          228 hlineto
          16 77 rlineto
          153 hlineto
          19 -77 rlineto
          -30 -20 -28 -34 -49 vvcurveto
          -66 callgsubr
          -337 692 rmoveto
          25 hlineto
          36 -234 rlineto
          -99 hlineto
          endchar
        </CharString>
        <CharString name="Aring">
          17 callsubr
          hstem
          183 107 61 106 vstem
          -64 callsubr
          124 -234 rmoveto
          25 hlineto
          36 -234 rlineto
          -99 hlineto
          -24 callsubr
        </CharString>
        <CharString name="Aringacute">
          17 callsubr
          30 136 hstemhm
          183 107 61 106 vstemhm
          -64 callsubr
          hintmask 11101110
          58 262 -95 callgsubr
          -176 -496 rmoveto
          25 hlineto
          36 -234 rlineto
          -99 hlineto
          hintmask 11111110
          -24 callsubr
        </CharString>
        <CharString name="Atilde">
          -70 callgsubr
          42 -2 callgsubr
          -5 650 hintmask 11101100
          -5 hmoveto
          -104 callsubr
          hintmask 11110100
          204 623 -18 callgsubr
          hintmask 11101100
          -79 callsubr
          hintmask 11110100
          -56 callgsubr
        </CharString>
        <CharString name="B">
          43 0 155 110 145 107 153 hstemhm
          -50 callsubr
          106 210 -203 220 hintmask 11110100
          30 0 callsubr
          -670 307 vlineto
          136 122 39 151 98 -24 28 -62 27 hvcurveto
          hintmask 11111000
          59 42 10 39 80 vvcurveto
          128 -109 38 -136 vhcurveto
          hintmask 11110100
          -17 -405 rmoveto
          45 14 -14 -40 -45 -13 -11 -46 hvcurveto
          -54 110 hlineto
          hintmask 11111000
          51 252 rmoveto
          38 17 -14 -37 -39 -14 -17 -40 hvcurveto
          -52 107 hlineto
          endchar
        </CharString>
        <CharString name="C">
          -28 callgsubr
          hstem
          18 234 vstem
          516 189 rmoveto
          0 -85 -6 -71 6 callgsubr
          vhcurveto
          6 179 rlineto
          0 -130 27 -75 -232 -64 -82 -264 -272 66 -78 220 109 106 26 0 vhcurveto
          endchar
        </CharString>
        <CharString name="CR">
          -329 endchar
        </CharString>
        <CharString name="Cacute">
          -28 callgsubr
          30 -88 callgsubr
          -298 836 -95 callgsubr
          endchar
        </CharString>
        <CharString name="Ccaron">
          -28 callgsubr
          29 -88 callgsubr
          -322 699 -90 callgsubr
          endchar
        </CharString>
        <CharString name="Ccedilla">
          -31 -220 88 -56 -21 119 68 32 -21 498 196 hstemhm
          18 234 5 73 -26 164 hintmask 10111001
          468 -112 rmoveto
          hintmask 10111010
          -27 callgsubr
          10 vlineto
          99 3 90 22 0 vvcurveto
          -3 176 rlineto
          0 -85 -6 -71 vhcurveto
          hintmask 10011100
          6 callgsubr
          hvcurveto
          6 179 rlineto
          0 -130 27 -75 -232 -64 -82 -264 vhcurveto
          hintmask 10011010
          -252 56 -85 183 -11 vhcurveto
          hintmask 10111010
          -79 9 vlineto
          hintmask 10111001
          -72 callsubr
          hintmask 01011010
          -4 -78 rlineto
          hintmask 10011010
          0 60 -11 67 vhcurveto
          hintmask 10111001
          -30 callsubr
        </CharString>
        <CharString name="Ccircumflex">
          -28 callgsubr
          30 -88 callgsubr
          -413 700 -100 callgsubr
        </CharString>
        <CharString name="Cdotaccent">
          -28 callgsubr
          30 143 hstemhm
          18 234 -64 180 hintmask 10101000
          516 189 rmoveto
          0 -85 -6 -71 vhcurveto
          hintmask 11110000
          6 callgsubr
          hvcurveto
          6 179 rlineto
          0 -130 27 -75 -232 -64 -82 -264 -272 66 -78 220 109 106 26 0 vhcurveto
          hintmask 10101000
          -331 700 -25 callgsubr
        </CharString>
        <CharString name="D">
          90 -20 callgsubr
          -61 callsubr
          endchar
        </CharString>
        <CharString name="Dcaron">
          90 -20 callgsubr
          42 136 -61 callsubr
          -182 367 -90 callgsubr
          endchar
        </CharString>
        <CharString name="Dcroat">
          -77 callgsubr
        </CharString>
        <CharString name="Delta">
          -14 0 179 298 182 hstem
          12 530 vstem
          12 hmoveto
          530 hlineto
          -110 659 rlineto
          -323 hlineto
          154 -182 rmoveto
          17 hlineto
          15 -298 rlineto
          -39 hlineto
          endchar
        </CharString>
        <CharString name="E">
          -70 callsubr
          -61 callgsubr
          vstem
          -94 callsubr
          endchar
        </CharString>
        <CharString name="Eacute">
          -70 callsubr
          43 136 -61 callgsubr
          vstem
          -94 callsubr
          158 179 -95 callgsubr
          endchar
        </CharString>
        <CharString name="Ebreve">
          -70 callsubr
          42 115 -61 callgsubr
          vstem
          -94 callsubr
          285 202 -99 callsubr
          -75 35 -75 125 125 35 75 75 vhcurveto
          endchar
        </CharString>
        <CharString name="Ecaron">
          -70 callsubr
          42 136 -61 callgsubr
          vstem
          -94 callsubr
          160 42 -90 callgsubr
          endchar
        </CharString>
        <CharString name="Ecircumflex">
          -70 callsubr
          43 136 -61 callgsubr
          vstem
          -94 callsubr
          64 43 -100 callgsubr
        </CharString>
        <CharString name="Edieresis">
          -70 callsubr
          43 144 hstemhm
          -50 callsubr
          -165 12 callgsubr
          hintmask 11111010
          -94 callsubr
          274 43 rmoveto
          161 144 -161 hlineto
          hintmask 11110110
          -207 -144 rmoveto
          161 144 -161 hlineto
          endchar
        </CharString>
        <CharString name="Edotaccent">
          -70 callsubr
          43 143 hstemhm
          -50 callsubr
          -71 180 hintmask 11111000
          -94 callsubr
          hintmask 11110100
          161 43 -25 callgsubr
        </CharString>
        <CharString name="Egrave">
          -70 callsubr
          43 136 -61 callgsubr
          vstem
          -94 callsubr
          83 179 -73 callgsubr
          endchar
        </CharString>
        <CharString name="Emacron">
          -70 callsubr
          43 136 hstemhm
          -50 callsubr
          -141 321 hintmask 11111000
          -94 callsubr
          hintmask 11110100
          91 43 -49 callsubr
        </CharString>
        <CharString name="Eng">
          124 21 -21 3 callgsubr
          30 hmoveto
          232 273 15 hlineto
          152 -273 rlineto
          -72 -8 -6 -81 -38 vhcurveto
          72 -170 198 62 47 27 1 197 rlinecurve
          670 -232 -254 -14 vlineto
          -154 254 rlineto
          -228 hlineto
          endchar
        </CharString>
        <CharString name="Eogonek">
          -15 -220 115 -94 -21 36 -21 205 185 60 183 57 185 hstemhm
          -50 callsubr
          hintmask 00111110
          30 hmoveto
          270 hlineto
          -29 -21 -29 -33 -50 vvcurveto
          hintmask 01011110
          -66 callgsubr
          hintmask 10011110
          -13 104 rlineto
          -65 callsubr
          25 35 37 21 21 vhcurveto
          24 185 -270 60 210 183 -210 57 270 185 -502 hlineto
          endchar
        </CharString>
        <CharString name="Eth">
          -77 callgsubr
        </CharString>
        <CharString name="Euro">
          -14 -13 193 65 60 62 60 51 192 hstem
          40 229 vstem
          15 367 rmoveto
          25 -36 hlineto
          -26 -25 -60 27 vlineto
          -198 15 72 -60 191 hhcurveto
          107 104 26 0 hvcurveto
          -3 172 rlineto
          0 -84 -5 -69 -62 -28 9 56 -11 vhcurveto
          221 60 -226 26 hlineto
          36 226 60 -218 vlineto
          43 12 28 8 58 hhcurveto
          69 81 -10 0 hvcurveto
          6 176 rlineto
          0 -128 26 -73 -197 -74 -60 -183 -16 vhcurveto
          -28 hlineto
          endchar
        </CharString>
        <CharString name="F">
          -43 21 -21 184 189 108 189 -61 callgsubr
          vstem
          30 hmoveto
          232 184 191 189 -191 108 251 189 -483 hlineto
          endchar
        </CharString>
        <CharString name="G">
          55 -9 -29 callsubr
          hstem
          -44 callsubr
          vstem
          346 232 -52 callsubr
          -93 callsubr
          endchar
        </CharString>
        <CharString name="Gbreve">
          55 -9 -29 callsubr
          29 115 hstemhm
          -44 callsubr
          hintmask 11101100
          346 232 -52 callsubr
          -93 callsubr
          hintmask 11111100
          23 478 -99 callsubr
          -75 35 -75 125 125 35 75 75 vhcurveto
          endchar
        </CharString>
        <CharString name="Gcircumflex">
          55 -9 -29 callsubr
          30 136 hstemhm
          -44 callsubr
          hintmask 11011100
          346 232 -52 callsubr
          vhcurveto
          hintmask 11111100
          -93 callsubr
          hintmask 11011100
          -203 319 -100 callgsubr
        </CharString>
        <CharString name="Gcommaaccent">
          55 -26 callgsubr
          36 -29 callsubr
          hstem
          -44 callsubr
          vstem
          202 -88 callsubr
          124 277 -52 callsubr
          -93 callsubr
          endchar
        </CharString>
        <CharString name="Gdotaccent">
          55 -9 -29 callsubr
          23 153 hstemhm
          17 234 -40 186 -51.5 246.5 hintmask 11111010
          346 232 -52 callsubr
          -93 callsubr
          hintmask 11010100
          -134 312 -54 callgsubr
        </CharString>
        <CharString name="H">
          91 21 -21 234 189 -46 callgsubr
          endchar
        </CharString>
        <CharString name="Hbar">
          95 21 -21 234 189 50 132 hstem
          32 232 131 232 vstem
          4 473 rmoveto
          28 -473 232 234 131 -234 232 473 28 132 -28 65 -232 -65 -131 65 -232 -65 -28 hlineto
          260 -182 rmoveto
          50 131 -50 vlineto
          endchar
        </CharString>
        <CharString name="Hcircumflex">
          91 21 -21 234 189 290 136 -46 callgsubr
          -248 479 -100 callgsubr
        </CharString>
        <CharString name="I">
          -272 21 -21 -61 callgsubr
          vstem
          -53 callsubr
          endchar
        </CharString>
        <CharString name="Iacute">
          -272 21 -21 11 callsubr
          30 232 vstem
          -53 callsubr
          53 179 -95 callgsubr
          endchar
        </CharString>
        <CharString name="Ibreve">
          -272 21 -21 712 115 -61 callgsubr
          vstem
          -53 callsubr
          160 202 -99 callsubr
          -75 35 -75 125 125 35 75 75 vhcurveto
          endchar
        </CharString>
        <CharString name="Icircumflex">
          -21 callgsubr
          -69 43 -100 callgsubr
        </CharString>
        <CharString name="Idieresis">
          -272 21 -21 713 144 hstem
          30 93 46 93 vstem
          -53 callsubr
          139 43 -86 callgsubr
        </CharString>
        <CharString name="Idotaccent">
          -272 21 -21 706 153 hstemhm
          -50 callsubr
          -209 186 hintmask 11100000
          -53 callsubr
          hintmask 11010000
          23 36 -54 callgsubr
        </CharString>
        <CharString name="Igrave">
          -21 callgsubr
          -60 179 -73 callgsubr
          endchar
        </CharString>
        <CharString name="Imacron">
          -272 21 -21 11 callsubr
          30 232 vstem
          -53 callsubr
          -44 43 -49 callsubr
        </CharString>
        <CharString name="Iogonek">
          -272 -221 115 -79 -21 227 -21 hstemhm
          -50 callsubr
          hintmask 01110000
          30 hmoveto
          1 hlineto
          -30 -21 -30 -34 -50 vvcurveto
          hintmask 10110000
          -90 67 -26 88 vhcurveto
          hintmask 01110000
          87 49 15 0 hvcurveto
          hintmask 10110000
          -13 104 rlineto
          -65 callsubr
          25 36 39 21 20 vhcurveto
          24 670 -232 hlineto
          endchar
        </CharString>
        <CharString name="Itilde">
          -272 6 callsubr
          hintmask 10110000
          -53 callsubr
          hintmask 11010000
          270 207 -18 callgsubr
          hintmask 10110000
          -79 callsubr
          hintmask 11010000
          -56 callgsubr
        </CharString>
        <CharString name="J">
          -243 5 callsubr
          -35 callgsubr
          endchar
        </CharString>
        <CharString name="Jcircumflex">
          -243 -13 191 535 136 -35 callgsubr
          -292 536 -100 callgsubr
        </CharString>
        <CharString name="K">
          45 21 -21 223 210 -61 callgsubr
          vstem
          384 hmoveto
          -40 callgsubr
        </CharString>
        <CharString name="Kcommaaccent">
          45 -27 callsubr
          223 210 -61 callgsubr
          vstem
          174 -88 callsubr
          190 45 rmoveto
          -40 callgsubr
        </CharString>
        <CharString name="L">
          -75 0 189 -61 callgsubr
          vstem
          480 hmoveto
          -15 callgsubr
          endchar
        </CharString>
        <CharString name="Lacute">
          -75 0 189 524 136 -61 callgsubr
          vstem
          480 hmoveto
          -15 callgsubr
          53 849 -95 callgsubr
          endchar
        </CharString>
        <CharString name="Lcaron">
          -52 0 189 299 182 -182 215 hstemhm
          -50 callsubr
          hintmask 10110000
          318 488 rmoveto
          162 hlineto
          62 215 rlineto
          -204 hlineto
          142 -703 rmoveto
          189 -218 vlineto
          hintmask 11010000
          481 -232 -670 vlineto
          endchar
        </CharString>
        <CharString name="Lcommaaccent">
          -75 -26 callgsubr
          45 189 -61 callgsubr
          vstem
          135 -88 callsubr
          325 45 rmoveto
          -15 callgsubr
          endchar
        </CharString>
        <CharString name="Lslash">
          -71 0 189 317 -20 hstem
          34 232 vstem
          3 151 rmoveto
          31 15 rlineto
          -166 450 189 -218 93 vlineto
          74 37 rlineto
          187 vlineto
          -74 -37 rlineto
          201 -232 -317 vlineto
          -31 -15 rlineto
          endchar
        </CharString>
        <CharString name="M">
          291 21 -21 -61 callgsubr
          331 232 vstem
          30 hmoveto
          232 345 11 hlineto
          57 -338 rlineto
          194 hlineto
          58 338 rlineto
          11 -345 232 670 -355 hlineto
          -43 -256 -52 256 rlineto
          -345 hlineto
          endchar
        </CharString>
        <CharString name="N">
          124 21 -21 3 callgsubr
          30 hmoveto
          -85 callsubr
          endchar
        </CharString>
        <CharString name="Nacute">
          124 21 -21 713 136 3 callgsubr
          30 hmoveto
          -85 callsubr
          225 179 -95 callgsubr
          endchar
        </CharString>
        <CharString name="Ncaron">
          124 21 -21 712 136 3 callgsubr
          30 hmoveto
          -85 callsubr
          233 42 -90 callgsubr
          endchar
        </CharString>
        <CharString name="Ncommaaccent">
          124 -27 callsubr
          3 callgsubr
          242 -88 callsubr
          -232 45 rmoveto
          -85 callsubr
          endchar
        </CharString>
        <CharString name="Ntilde">
          124 6 callsubr
          164 232 hintmask 10111000
          30 hmoveto
          -85 callsubr
          hintmask 11011000
          467 207 -18 callgsubr
          hintmask 10111000
          -79 callsubr
          hintmask 11011000
          -56 callgsubr
        </CharString>
        <CharString name="O">
          -58 callgsubr
          hstem
          -1 callgsubr
          vstem
          -91 callsubr
          endchar
        </CharString>
        <CharString name="OE">
          322 -13 188 -175 185 61 181 58 185 hstemhm
          18 228 152 232 hintmask 01111100
          301 683 rmoveto
          -218 -65 -92 -251 hvcurveto
          hintmask 10111100
          -246 59 -107 214 vhcurveto
          hintmask 01111100
          79 114 13 0 hvcurveto
          385 185 -239 61 179 181 -179 58 239 185 -385 hlineto
          0 -138 13 -45 vhcurveto
          hintmask 10111100
          56 -508 rmoveto
          -108 -3 49 116 122 14 33 97 14 13 -1 -1 14 hvcurveto
          -318 vlineto
          endchar
        </CharString>
        <CharString name="Oacute">
          -101 callsubr
          -89 862 -95 callgsubr
          endchar
        </CharString>
        <CharString name="Obreve">
          -58 callgsubr
          29 115 hstemhm
          -1 callgsubr
          hintmask 11011000
          -91 callsubr
          hintmask 11111000
          44 885 -99 callsubr
          -75 35 -75 125 125 35 75 75 vhcurveto
          endchar
        </CharString>
        <CharString name="Ocircumflex">
          -101 callsubr
          -182 726 -100 callgsubr
        </CharString>
        <CharString name="Odieresis">
          -35 callsubr
          144 hstemhm
          -5 callgsubr
          -99 12 callgsubr
          -99 234 hintmask 11110010
          -91 callsubr
          hintmask 10101100
          23 726 -86 callgsubr
        </CharString>
        <CharString name="Ograve">
          -101 callsubr
          -178 862 -73 callgsubr
          endchar
        </CharString>
        <CharString name="Ohungarumlaut">
          -101 callsubr
          -154 862 -60 callgsubr
        </CharString>
        <CharString name="Omacron">
          -35 callsubr
          -19 callgsubr
          -75 321 -76 234 hintmask 10110100
          -34 callsubr
          hvcurveto
          hintmask 11110100
          103 11 57 74 77 8 -57 -103 vhcurveto
          hintmask 10110100
          -102 -9 -58 -76 vhcurveto
          -188 vmoveto
          223 96 104 244 hvcurveto
          hintmask 11110100
          244 -96 104 -223 -223 -96 -104 -244 vhcurveto
          hintmask 10110100
          -244 99 -104 220 vhcurveto
          hintmask 10101000
          -160 726 -49 callsubr
        </CharString>
        <CharString name="Omega">
          -14 0 180 357 133 hstemhm
          40 205 -185 143 101 206 -164 143 hintmask 11100100
          40 180 rmoveto
          -180 205 170 vlineto
          hintmask 11010100
          0 -42 54 142 vvcurveto
          146 4 25 68 67 4 -25 -146 vhcurveto
          hintmask 11011000
          -142 -42 -54 0 vhcurveto
          -170 206 180 vlineto
          hintmask 11010100
          -70 hlineto
          5 3 44 33 160 vvcurveto
          190 -35 104 -179 -179 -36 -104 -190 -164 46 -31 2 -1 vhcurveto
          endchar
        </CharString>
        <CharString name="Oslash">
          14 callgsubr
          hstemhm
          -1 callgsubr
          hintmask 01011100
          83 -10 rmoveto
          hintmask 10011100
          -43 callgsubr
          hintmask 01101100
          -26 callsubr
          hintmask 01011100
          -30 -12 -15 -33 1 hhcurveto
          hintmask 10101100
          252 185 -36 callsubr
          103 11 57 74 77 8 -57 -103 -102 -9 -58 -76 hvcurveto
          endchar
        </CharString>
        <CharString name="Oslashacute">
          14 callgsubr
          48 136 hstemhm
          -1 callgsubr
          hintmask 01011110
          83 -10 rmoveto
          hintmask 10011110
          -43 callgsubr
          hintmask 01101110
          -26 callsubr
          hintmask 01011110
          -30 -12 -15 -33 1 hhcurveto
          hintmask 10101110
          252 185 -36 callsubr
          103 11 57 74 77 8 -57 -103 -102 -9 -58 -76 hvcurveto
          -89 689 -95 callgsubr
          endchar
        </CharString>
        <CharString name="Otilde">
          -58 callgsubr
          29 -2 callgsubr
          -1 callgsubr
          hintmask 11011100
          -91 callsubr
          hintmask 11101100
          154 890 -18 callgsubr
          hintmask 11011100
          -79 callsubr
          hintmask 11101100
          -56 callgsubr
        </CharString>
        <CharString name="P">
          48 21 -21 142 183 162 183 -61 callgsubr
          101 234 vstem
          293 142 rmoveto
          200 104 56 211 211 -105 50 -199 hvcurveto
          -263 -670 232 142 hlineto
          183 vmoveto
          162 21 vlineto
          58 22 -15 -64 -61 -23 -22 -57 hvcurveto
          endchar
        </CharString>
        <CharString name="Q">
          103 -13 188 320 188 hstem
          16 228 173 234 vstem
          332 -13 rmoveto
          10 10 0 1 9 hvcurveto
          98 -146 176 87 -80 119 rlineto
          66 55 30 93 139 vvcurveto
          247 -94 101 -225 -225 -91 -101 -247 -247 94 -101 222 vhcurveto
          188 vmoveto
          -72 -16 58 102 102 16 58 72 75 10 -58 -102 -101 -11 -59 -74 hvcurveto
          endchar
        </CharString>
        <CharString name="R">
          17 callgsubr
          -90 callsubr
          49 250 -57 callsubr
        </CharString>
        <CharString name="Racute">
          17 callgsubr
          43 136 -90 callsubr
          -92 676 -95 callgsubr
          -101 -426 -57 callsubr
        </CharString>
        <CharString name="Rcaron">
          17 callgsubr
          42 136 -90 callsubr
          -84 539 -90 callgsubr
          234 -425 -57 callsubr
        </CharString>
        <CharString name="Rcommaaccent">
          53 -260 215 66 -23 callsubr
          -90 callsubr
          -125 -433 rmoveto
          162 hlineto
          62 215 rlineto
          -204 hlineto
          154 468 -57 callsubr
        </CharString>
        <CharString name="S">
          -12 callsubr
          -52 callgsubr
          hintmask 11010000
          546 657 -3 callsubr
          hintmask 11101000
          -104 callgsubr
          endchar
        </CharString>
        <CharString name="Sacute">
          -12 callsubr
          30 136 -52 callgsubr
          hintmask 01101000
          546 657 -3 callsubr
          hintmask 11110100
          -104 callgsubr
          hintmask 00110000
          -336 372 -95 callgsubr
          endchar
        </CharString>
        <CharString name="Scaron">
          -12 callsubr
          29 136 -52 callgsubr
          hintmask 01101000
          546 657 -3 callsubr
          hintmask 11110100
          -104 callgsubr
          hintmask 00110000
          -329 235 -90 callgsubr
          endchar
        </CharString>
        <CharString name="Scedilla">
          14 -30 callgsubr
          68 19 191 -166 -21 502 191 hstemhm
          -5 callgsubr
          -29 73 -26 164 -98 234 hintmask 1010110010000000
          432 -123 rmoveto
          hintmask 0110110100000000
          -27 callgsubr
          hintmask 0101010101000000
          19 9 vlineto
          171 94 59 171 157 -56 25 -191 43 hvcurveto
          hintmask 0101011001000000
          -64 14 -7 5 14 vvcurveto
          14 10 4 41 98 141 -15 0 vhcurveto
          6 180 rlineto
          0 -158 26 -107 -166 -99 -44 -191 -140 53 -52 188 -29 vhcurveto
          70 -11 7 -2 -14 vvcurveto
          -16 -12 -7 -40 -98 -153 22 0 vhcurveto
          hintmask 0100111000000000
          -10 -177 rlineto
          hintmask 0100110100000000
          0 90 -23 110 -9 vhcurveto
          hintmask 0110110100000000
          -91 -78 callgsubr
        </CharString>
        <CharString name="Scircumflex">
          -12 callsubr
          30 136 -52 callgsubr
          hintmask 01101000
          546 657 -3 callsubr
          hintmask 11110100
          -104 callgsubr
          hintmask 00110000
          -428 236 -100 callgsubr
        </CharString>
        <CharString name="Scommaaccent">
          14 -26 callgsubr
          31 191 315 191 -52 callgsubr
          hintmask 11101000
          180 -88 callsubr
          346 702 -3 callsubr
          hintmask 11110100
          -104 callgsubr
          endchar
        </CharString>
        <CharString name="T">
          -45 21 -21 481 189 11 callgsubr
          9 481 -34 callgsubr
          endchar
        </CharString>
        <CharString name="Tbar">
          -45 21 -21 190 137 154 189 11 callgsubr
          9 481 rmoveto
          138 -154 -47 -137 47 -190 232 190 47 137 -47 154 10 callgsubr
          hlineto
          endchar
        </CharString>
        <CharString name="Tcaron">
          -45 21 -21 481 189 42 136 11 callgsubr
          9 481 -34 callgsubr
          169 42 -90 callgsubr
          endchar
        </CharString>
        <CharString name="Tcedilla">
          -45 -30 callgsubr
          68 54 -21 481 189 hstemhm
          147 232 -153 73 -26 164 hintmask 10111001
          437 -123 rmoveto
          hintmask 01111010
          -27 callgsubr
          33 vlineto
          hintmask 01111100
          80 481 10 callgsubr
          -189 138 -481 79 -101 9 hlineto
          hintmask 10111001
          -72 callsubr
          hintmask 01011100
          -4 -78 rlineto
          hintmask 10011100
          0 60 -11 67 vhcurveto
          hintmask 10111001
          -30 callsubr
        </CharString>
        <CharString name="Tcommaaccent">
          -45 -27 callsubr
          481 189 11 callgsubr
          141 -88 callsubr
          -152 526 -34 callgsubr
          endchar
        </CharString>
        <CharString name="Thorn">
          47 21 -21 72 183 162 183 hstem
          30 226 107 228 vstem
          290 72 rmoveto
          198 103 57 210 210 -104 51 -197 hvcurveto
          -34 70 -226 -670 226 72 hlineto
          183 vmoveto
          162 24 vlineto
          61 22 -15 -64 -61 -23 -22 -60 hvcurveto
          endchar
        </CharString>
        <CharString name="U">
          77 5 callsubr
          hstem
          26 232 125 232 vstem
          -103 callsubr
          endchar
        </CharString>
        <CharString name="Uacute">
          77 9 callgsubr
          26 232 125 232 vstem
          -103 callsubr
          -29 618 -95 callgsubr
          endchar
        </CharString>
        <CharString name="Ubreve">
          77 5 callsubr
          534 115 hstem
          26 232 125 232 vstem
          -103 callsubr
          106 641 -99 callsubr
          -75 35 -75 125 125 35 75 75 vhcurveto
          endchar
        </CharString>
        <CharString name="Ucircumflex">
          -65 callgsubr
          -117 482 -100 callgsubr
        </CharString>
        <CharString name="Udieresis">
          77 -11 callgsubr
          144 hstem
          136 122 125 121 vstem
          -103 callsubr
          85 482 -86 callgsubr
        </CharString>
        <CharString name="Ugrave">
          -65 callgsubr
          -82 618 -73 callgsubr
          endchar
        </CharString>
        <CharString name="Uhungarumlaut">
          77 9 callgsubr
          26 232 125 232 vstem
          -103 callsubr
          -112 618 -60 callgsubr
        </CharString>
        <CharString name="Umacron">
          77 9 callgsubr
          160 98 125 98 vstem
          -103 callsubr
          -98 482 -49 callsubr
        </CharString>
        <CharString name="Uogonek">
          77 -220 115 123 -21 hstem
          26 232 125 232 vstem
          428 -101 rmoveto
          -65 callsubr
          22 27 32 22 22 vhcurveto
          137 18 69 70 163 vvcurveto
          426 -232 -439 vlineto
          -38 -16 -15 -46 -46 -17 15 38 vhcurveto
          439 -232 -430 vlineto
          -151 60 -69 118 -23 vhcurveto
          -28 -22 -26 -32 -47 vvcurveto
          -66 callgsubr
          endchar
        </CharString>
        <CharString name="Uring">
          77 5 callsubr
          524 74 43 75 hstemhm
          26 232 -75 107 61 106 -74 232 hintmask 11110010
          -103 callsubr
          -75 567 rmoveto
          -69 58 -27 79 83 54 32 64 -22 callsubr
          hintmask 11101100
          -17 callsubr
        </CharString>
        <CharString name="Utilde">
          77 5 callsubr
          534 -2 callgsubr
          26 232 125 232 hintmask 10111000
          -103 callsubr
          hintmask 11011000
          216 646 -18 callgsubr
          hintmask 10111000
          -79 callsubr
          hintmask 11011000
          -56 callgsubr
        </CharString>
        <CharString name="V">
          34 0 234 -213 -21 hstemhm
          -7 609 hintmask 01100000
          602 0 callsubr
          -246 hlineto
          hintmask 10100000
          -47 -436 rlineto
          -18 hlineto
          -52 436 rlineto
          -246 hlineto
          136 -670 rlineto
          342 hlineto
          endchar
        </CharString>
        <CharString name="W">
          -63 callgsubr
          hstem
          6 900 -97 callgsubr
          endchar
        </CharString>
        <CharString name="Wacute">
          -63 callgsubr
          53 136 hstem
          6 900 -97 callgsubr
          371 179 -95 callgsubr
          endchar
        </CharString>
        <CharString name="Wcircumflex">
          -63 callgsubr
          53 136 hstem
          6 900 -97 callgsubr
          268 43 -100 callgsubr
        </CharString>
        <CharString name="Wdieresis">
          -63 callgsubr
          53 144 hstem
          272 12 callgsubr
          -97 callgsubr
          473 43 -86 callgsubr
        </CharString>
        <CharString name="Wgrave">
          -63 callgsubr
          53 136 hstem
          6 900 -97 callgsubr
          292 179 -73 callgsubr
          endchar
        </CharString>
        <CharString name="X">
          19 21 -21 hstem
          -8 603 vstem
          228 0 callsubr
          -236 hlineto
          143 -349 -143 -321 rlineto
          236 hlineto
          61 178 59 -178 rlineto
          238 hlineto
          -136 351 145 319 rlineto
          -228 hlineto
          -78 -184 rlineto
          endchar
        </CharString>
        <CharString name="Y">
          26 21 -21 hstem
          178 232 vstem
          -92 callgsubr
          endchar
        </CharString>
        <CharString name="Yacute">
          26 21 -21 11 callsubr
          178 232 vstem
          -92 callgsubr
          -174 849 -95 callgsubr
          endchar
        </CharString>
        <CharString name="Ycircumflex">
          26 21 -21 11 callsubr
          178 232 vstem
          -92 callgsubr
          -296 713 -100 callgsubr
        </CharString>
        <CharString name="Ydieresis">
          26 21 -21 713 144 hstemhm
          112 161 -95 232 -91 161 hintmask 11010000
          -92 callgsubr
          hintmask 11101000
          -91 713 -86 callgsubr
        </CharString>
        <CharString name="Ygrave">
          26 21 -21 11 callsubr
          178 232 vstem
          -92 callgsubr
          -282 849 -73 callgsubr
          endchar
        </CharString>
        <CharString name="Z">
          5 -20 callgsubr
          hstem
          19 530 -82 callsubr
          endchar
        </CharString>
        <CharString name="Zacute">
          5 -20 callgsubr
          43 136 hstem
          19 530 -82 callsubr
          176 179 -95 callgsubr
          endchar
        </CharString>
        <CharString name="Zcaron">
          5 -20 callgsubr
          42 136 hstem
          19 530 -82 callsubr
          184 42 -90 callgsubr
          endchar
        </CharString>
        <CharString name="Zdotaccent">
          5 -20 callgsubr
          43 143 hstem
          194 180 -82 callsubr
          175 43 -25 callgsubr
        </CharString>
        <CharString name="a">
          -99 callgsubr
          -20 callsubr
          hintmask 00101010
          -106 callgsubr
          hintmask 01011110
          -72 -3 rlineto
          -101 callgsubr
          hintmask 10011110
          -105 callsubr
          endchar
        </CharString>
        <CharString name="aacute">
          -103 callgsubr
          -39 532 -96 callsubr
          endchar
        </CharString>
        <CharString name="abreve">
          -99 callgsubr
          30 125 -20 callsubr
          hintmask 00101001
          -106 callgsubr
          hintmask 01011011
          -96 callgsubr
          56 527 -99 callsubr
          -80 30 -80 130 130 30 80 80 vhcurveto
          endchar
        </CharString>
        <CharString name="acircumflex">
          -103 callgsubr
          -159 366 -102 callgsubr
          endchar
        </CharString>
        <CharString name="acute">
          19 callgsubr
          176 280 vstem
          219 723 -96 callsubr
          endchar
        </CharString>
        <CharString name="acute.cap">
          269 11 callsubr
          90 285 vstem
          133 849 -95 callgsubr
          endchar
        </CharString>
        <CharString name="adieresis">
          -99 callgsubr
          41 154 -11 callsubr
          -145 164 41 224 -219 164 hintmask 0010110110000000
          -106 callgsubr
          hintmask 0101111010000000
          -72 -3 rlineto
          -101 callgsubr
          hintmask 1001111010000000
          -105 callsubr
          hintmask 0010110101000000
          39 368 -87 callsubr
        </CharString>
        <CharString name="ae">
          243 -32 callgsubr
          hstemhm
          10 218 -218 783 -222 222 hintmask 0110010100000000
          543 -79 callgsubr
          hintmask 0110010010000000
          289 hlineto
          10 99 rlineto
          159 -88 73 -173 -53 -40 -9 -17 -31 vhcurveto
          20 -31 -45 6 -65 hhcurveto
          -109 -126 -35 0 hvcurveto
          hintmask 0110100100000000
          5 -152 rlineto
          0 119 13 89 26 17 -5 -14 vhcurveto
          -9 vlineto
          hintmask 0101011000000000
          -4 callgsubr
          81 98 29 5 15 vhcurveto
          -23 31 46 -11 67 15 callgsubr
          hintmask 0110010100000000
          0 -143 -9 -92 vhcurveto
          hintmask 0110010010000000
          -50 157 -21 callsubr
          hintmask 1001011000000000
          -283 -116 -45 callgsubr
        </CharString>
        <CharString name="aeacute">
          263 -32 callgsubr
          -5 callsubr
          hstemhm
          10 218 -218 803 -222 222 hintmask 0110011010000000
          563 -79 callgsubr
          hintmask 0110011001000000
          289 hlineto
          10 99 rlineto
          159 -88 73 -173 -51 -43 -9 -16 -36 vhcurveto
          19 -40 -52 6 -63 hhcurveto
          -109 -126 -35 0 hvcurveto
          hintmask 0110101010000000
          5 -152 rlineto
          0 119 13 89 26 17 -5 -14 vhcurveto
          -9 vlineto
          hintmask 0101011100000000
          -4 callgsubr
          88 109 35 0 vhcurveto
          -23 40 53 -12 68 15 callgsubr
          hintmask 0110011010000000
          0 -143 -9 -92 vhcurveto
          -201 571 -96 callsubr
          hintmask 0110011001000000
          -86 -414 -21 callsubr
          hintmask 1001011100000000
          -303 -116 -45 callgsubr
        </CharString>
        <CharString name="agrave">
          -103 callgsubr
          -166 532 -83 callsubr
        </CharString>
        <CharString name="amacron">
          -99 callgsubr
          45 144 -11 callsubr
          -121 327 -146 224 hintmask 0010110010000000
          -106 callgsubr
          hintmask 0101111010000000
          -72 -3 rlineto
          -101 callgsubr
          hintmask 1001111010000000
          -105 callsubr
          hintmask 0010110100000000
          -147 372 -48 callgsubr
        </CharString>
        <CharString name="ampersand">
          138 -13 181 375 140 hstemhm
          6 226 -145 217 61 220 hintmask 11011000
          337 683 rmoveto
          -180 -70 -69 -114 -58 5 -32 22 -33 hvcurveto
          hintmask 11101000
          -67 -29 -41 -49 -109 vvcurveto
          -156 85 -47 196 102 76 19 36 58 vhcurveto
          135 -55 46 125 -65 56 25 45 18 53 15 58 rlinecurve
          -182 7 -4 -14 -6 -14 -6 -12 rlinecurve
          -59 51 rlineto
          130 34 15 36 90 vvcurveto
          hintmask 11011000
          144 -109 37 -139 vhcurveto
          -33 -185 rmoveto
          30 9 15 22 20 10 -11 -34 -28 -23 -21 -13 -9 vhcurveto
          -18 18 -7 16 24 vvcurveto
          hintmask 11100000
          4 -330 rmoveto
          -50 -26 22 39 13 1 10 3 10 hvcurveto
          107 -90 rlineto
          -3 -12 -12 -1 -11 hhcurveto
          endchar
        </CharString>
        <CharString name="aogonek">
          -7 -220 115 -94 -21 36 -21 192 154 -133 -21 33 -21 193 122.5 29.5 174 -11 callsubr
          17 210 -167 224 hintmask 1000010101000000
          529 -101 rmoveto
          -65 callsubr
          23 29 34 22 21 vhcurveto
          hintmask 0010010100100000
          15 2 12 2 0 vvcurveto
          hintmask 0011000100100000
          3 142 -7 2 -13 6 -4 3 rlinecurve
          190 vlineto
          145 -100 31 -145 -109 -132 -35 0 vhcurveto
          5 -152 rlineto
          0 125 13 89 26 17 -5 -14 vhcurveto
          -9 vlineto
          hintmask 0010101110100000
          -72 -3 rlineto
          -130 -5 -82 -20 -131 vvcurveto
          -119 59 -51 126 vhcurveto
          hintmask 0100100101000000
          82 62 35 0 0 1 -2 1 -1 hvcurveto
          -36 -18 -54 -37 -68 vvcurveto
          -66 callgsubr
          hintmask 0011001110100000
          -248 398 -45 callgsubr
        </CharString>
        <CharString name="approxequal">
          -14 11 185 -141 185 21 185 -141 185 hstemhm
          61 426 hintmask 10011000
          479 235 rmoveto
          0 -63 -39 -39 vhcurveto
          hintmask 01011000
          -47 callsubr
          hintmask 10101000
          38 101 -44 52 hhcurveto
          68 48 53 0 hvcurveto
          -8 421 rmoveto
          0 -63 -39 -39 vhcurveto
          hintmask 01011000
          -47 callsubr
          hintmask 01101000
          16 callsubr
        </CharString>
        <CharString name="aring">
          -99 callgsubr
          25 77 43 78 -11 callsubr
          -92 104 48 224 -211 103 hintmask 0010101011000000
          -106 callgsubr
          hintmask 0011101011000000
          -72 -3 rlineto
          hintmask 0101101101000000
          -101 callgsubr
          hintmask 1001101101000000
          -105 callsubr
          hintmask 0010111010100000
          -118 451 -74 callgsubr
          endchar
        </CharString>
        <CharString name="aringacute">
          -99 callgsubr
          20 77 43 78 20 166 -11 callsubr
          -96 104 52 224 -215 103 hintmask 0010100101100000
          -106 callgsubr
          hintmask 0011100101100000
          -72 -3 rlineto
          hintmask 0101100110100000
          -101 callgsubr
          hintmask 1001100110100000
          -105 callsubr
          hintmask 0010111101010000
          -122 446 -74 callgsubr
          hintmask 0010100101100000
          -28 285 -96 callsubr
          endchar
        </CharString>
        <CharString name="asciicircum">
          69 313 357 hstem
          46 542 vstem
          378 313 rmoveto
          210 hlineto
          -144 357 rlineto
          -254 hlineto
          -144 -357 rlineto
          210 hlineto
          63 217 rlineto
          endchar
        </CharString>
        <CharString name="asciitilde">
          -14 136 185 -141 185 hstemhm
          61 426 hintmask 10100000
          479 360 rmoveto
          0 -63 -39 -39 vhcurveto
          hintmask 01100000
          -47 callsubr
          hintmask 10100000
          16 callsubr
        </CharString>
        <CharString name="asterisk">
          -149 472.5 126.5 97 -20 hstem
          19 371 vstem
          390 469 rmoveto
          134 vlineto
          -102 -8 38 94 -127 41 -25 -99 -77 65 -78 -108 86 -54 -85 -54 78 -107 78 65 26 -98 125 41 -38 95 rlineto
          endchar
        </CharString>
        <CharString name="at">
          463 -219 -47 callgsubr
          315 -92 callsubr
        </CharString>
        <CharString name="at.cap">
          463 -159 -47 callgsubr
          375 -92 callsubr
        </CharString>
        <CharString name="atilde">
          -99 callgsubr
          29 141 -97 140 -20 callsubr
          hintmask 0010101010000000
          -106 callgsubr
          hintmask 0101101110000000
          -72 -3 rlineto
          -101 callgsubr
          hintmask 1001110110000000
          -105 callsubr
          170 536 -51 callsubr
          hintmask 0010101010000000
          -94 callgsubr
          hintmask 0010110010000000
          -81 callgsubr
        </CharString>
        <CharString name="b">
          5 -13 181 350 -20 192 -20 hstem
          27 224 76 226 vstem
          355 518 rmoveto
          -38 -66 -16 0 hvcurveto
          188 -224 -680 vlineto
          0 171 -23 81 210 64 71 203 151 -50 106 -148 vhcurveto
          -72 -350 rmoveto
          -19 -13 3 0 hvcurveto
          159 vlineto
          0 23 7 9 30 14 -16 -65 -47 -7 -41 -37 vhcurveto
          endchar
        </CharString>
        <CharString name="backslash">
          -14 697 -21 hstem
          15 520 vstem
          232 720 rmoveto
          -217 -44 303 -750 217 44 rlineto
          endchar
        </CharString>
        <CharString name="bar">
          -278 -199 -21 923 -20 hstem
          34 218 vstem
          34 -220 rmoveto
          218 923 -218 hlineto
          endchar
        </CharString>
        <CharString name="braceleft">
          -203 -134 -33 callsubr
          46 227 hintmask 01010000
          276 211 -80 callsubr
        </CharString>
        <CharString name="braceleft.cap">
          -204 -120 -33 callsubr
          46 227 hintmask 01010000
          276 225 -80 callsubr
        </CharString>
        <CharString name="braceright">
          -205 -138 -33 callsubr
          86 227 hintmask 01010000
          83 412 -80 callgsubr
        </CharString>
        <CharString name="braceright.cap">
          -204 -105 -33 callsubr
          87 227 hintmask 01010000
          84 445 -80 callgsubr
        </CharString>
        <CharString name="bracketleft">
          -223 -123 -2 callsubr
          33 225 vstem
          322 749 2 callsubr
        </CharString>
        <CharString name="bracketleft.cap">
          -223 -101 -2 callsubr
          33 225 vstem
          322 771 2 callsubr
        </CharString>
        <CharString name="bracketright">
          -225 -123 -2 callsubr
          81 225 vstem
          17 568 2 callgsubr
        </CharString>
        <CharString name="bracketright.cap">
          -225 -101 -2 callsubr
          81 225 vstem
          17 590 2 callgsubr
        </CharString>
        <CharString name="breve">
          -158 548 125 hstem
          248 116 vstem
          248 718 -99 callsubr
          -80 30 -80 130 130 30 80 80 vhcurveto
          endchar
        </CharString>
        <CharString name="breve.cap">
          -158 712 115 hstem
          248 116 vstem
          248 872 -99 callsubr
          -75 35 -75 125 125 35 75 75 vhcurveto
          endchar
        </CharString>
        <CharString name="brokenbar">
          -280 -199 -21 923 -20 hstem
          33 218 vstem
          33 703 rmoveto
          -395 218 395 vlineto
          -218 -533 rmoveto
          -390 218 390 vlineto
          endchar
        </CharString>
        <CharString name="bullet">
          -187 140 270 hstem
          51 275 vstem
          51 140 rmoveto
          275 270 -275 hlineto
          endchar
        </CharString>
        <CharString name="c">
          -29 callgsubr
          -93 callgsubr
          endchar
        </CharString>
        <CharString name="cacute">
          -29 callgsubr
          -5 callsubr
          -93 callgsubr
          -105 205 -96 callsubr
          endchar
        </CharString>
        <CharString name="caron">
          19 callgsubr
          235 351 vstem
          326 557 -85 callgsubr
        </CharString>
        <CharString name="caron.cap">
          269 712 136 hstem
          228 365 vstem
          329 712 -90 callgsubr
          endchar
        </CharString>
        <CharString name="ccaron">
          -29 callgsubr
          -5 callsubr
          -93 callgsubr
          -118 39 -85 callgsubr
        </CharString>
        <CharString name="ccedilla">
          -98 -30 callgsubr
          68 41 -21 24 -21 333 195 hstemhm
          17 226 -35 73 -26 164 hintmask 1010110010000000
          419 -123 rmoveto
          hintmask 0110110100000000
          -27 callgsubr
          hintmask 0101010100000000
          20 vlineto
          83 3 86 25 0 vvcurveto
          -7 175 rlineto
          hintmask 0100111000000000
          0 -105 -7 -38 -43 -14 17 53 52 15 18 42 38 103 -8 0 vhcurveto
          7 177 rlineto
          0 -104 26 -77 -178 -72 -61 -204 vhcurveto
          hintmask 0100110100000000
          -170 43 -78 148 -15 vhcurveto
          hintmask 0110110100000000
          -91 -78 callgsubr
        </CharString>
        <CharString name="ccircumflex">
          -29 callgsubr
          -5 callsubr
          -93 callgsubr
          -209 39 -102 callgsubr
          endchar
        </CharString>
        <CharString name="cdotaccent">
          -29 callgsubr
          45 153 hstemhm
          16 226 -93 186 hintmask 11101000
          266 518 rmoveto
          hintmask 11110000
          -178 -72 -61 -204 -191 54 -75 196 87 96 28 0 hvcurveto
          -7 175 rlineto
          0 -105 -7 -38 -43 -14 17 53 52 15 18 42 38 103 -8 0 vhcurveto
          7 177 rlineto
          hintmask 11101000
          0 -104 26 -77 vhcurveto
          -117 45 -54 callgsubr
        </CharString>
        <CharString name="cedilla">
          269 -30 callgsubr
          112 hstemhm
          403 73 -26 164 hintmask 10101000
          614 -123 rmoveto
          hintmask 01110000
          -27 callgsubr
          44 -73 -112 9 vlineto
          hintmask 10101000
          -72 callsubr
          hintmask 01110000
          -4 -78 rlineto
          hintmask 10110000
          0 60 -11 67 vhcurveto
          hintmask 10101000
          -30 callsubr
        </CharString>
        <CharString name="cent">
          -14 -86 677 -291 291 hstemhm
          41 222 -15 60 hintmask 10010000
          248 -86 rmoveto
          60 129 hlineto
          111 4 83 17 0 vvcurveto
          hintmask 01100000
          -6 148 rlineto
          0 -104 -4 -81 -37 -11 14 32 32 12 14 36 81 102 -4 0 vhcurveto
          6 150 rlineto
          hintmask 01010000
          0 -86 16 -106 3 vhcurveto
          126 -60 -125 vlineto
          hintmask 01100000
          -140 -4 -67 -50 -158 vvcurveto
          hintmask 10010000
          -147 52 -61 155 -4 vhcurveto
          endchar
        </CharString>
        <CharString name="circumflex">
          19 callgsubr
          239 351 vstem
          239 557 -102 callgsubr
          endchar
        </CharString>
        <CharString name="circumflex.cap">
          269 11 callsubr
          232 365 vstem
          232 713 -100 callgsubr
        </CharString>
        <CharString name="colon">
          -276 0 199 66 199 hstem
          30 228 vstem
          30 hmoveto
          -36 callgsubr
          66 vmoveto
          -36 callgsubr
          endchar
        </CharString>
        <CharString name="comma">
          -275 -103 296 hstem
          13 264 vstem
          13 -103 -14 callsubr
          endchar
        </CharString>
        <CharString name="commaaccent">
          -349 -388 296 hstem
          -24 264 vstem
          -24 -388 -14 callsubr
          endchar
        </CharString>
        <CharString name="copyright">
          33 150 60 59 95 139 95 60 60 hstem
          23 62 94 103 230 15 callsubr
          157 170 107 123 161 155 -107 129 -168 -160 18 callgsubr
          90 102 123 20 callsubr
          -125 -122 -90 102 122 vhcurveto
          94 5 rmoveto
          -136 40 -34 88 28 20 4 5 15 vhcurveto
          21 9 -7 82 -22 -3 rlineto
          -1 -13 -16 -1 -16 hhcurveto
          -25 -10 22 53 49 8 15 27 16 16 -2 -1 13 hvcurveto
          22 -3 7 86 -22 7 rlineto
          4 -15 -19 4 -24 hhcurveto
          -92 -40 -36 -123 hvcurveto
          endchar
        </CharString>
        <CharString name="currency">
          -14 35 133 182 133 hstem
          48 133 182 133 vstem
          511 452 rmoveto
          -43 43 -59 -60 -79 63 -113 1 -79 -61 rlinecurve
          -56 57 -43 -43 56 -56 -63 -80 0 -115 63 -80 rlinecurve
          -56 -55 43 -43 56 56 79 -60 113 1 79 62 rlinecurve
          59 -59 43 43 -60 59 60 78 0 111 -60 79 rlinecurve
          -244 -199 rmoveto
          -35 34 0 61 35 34 34 36 61 0 34 -36 36 -34 0 -61 -36 -34 -34 -35 -61 0 -34 35 rrcurveto
          endchar
        </CharString>
        <CharString name="d">
          6 -8 callgsubr
          -6 -20 198 -20 hstemhm
          16 0 callgsubr
          hintmask 01011010
          542 690 rmoveto
          -224 -178 hlineto
          0 -53 6 -28 vhcurveto
          hintmask 01101110
          -39 callgsubr
          hintmask 10101110
          -42 callgsubr
        </CharString>
        <CharString name="dagger">
          -30 -174 -21 489 198 hstem
          154 226 vstem
          17 294 rmoveto
          137 -489 226 489 7 callsubr
          hlineto
          endchar
        </CharString>
        <CharString name="daggerdbl">
          -16 -17 198 113 198 hstem
          161 226 vstem
          161 -194 rmoveto
          226 177 137 198 -137 113 7 callsubr
          -198 137 -113 -137 -198 137 hlineto
          endchar
        </CharString>
        <CharString name="dcaron">
          184 -8 callgsubr
          -64 215 -215 236 -178 -20 hstemhm
          16 0 callgsubr
          hintmask 01001001
          581 454 rmoveto
          162 hlineto
          hintmask 01010001
          62 215 rlineto
          -204 hlineto
          hintmask 01001001
          -59 21 rmoveto
          -224 hlineto
          hintmask 01000101
          -178 vlineto
          0 -53 6 -28 vhcurveto
          hintmask 01100011
          -39 callgsubr
          hintmask 10100011
          -42 callgsubr
        </CharString>
        <CharString name="dcroat">
          6 -8 callgsubr
          -6 -20 53 107 -107 145 hstemhm
          16 0 callgsubr
          hintmask 01010101
          542 690 rmoveto
          -224 hlineto
          hintmask 01011001
          -38 -61 vlineto
          hintmask 01010101
          -107 61 -33 vlineto
          0 -53 6 -28 vhcurveto
          hintmask 01100111
          -39 callgsubr
          hintmask 10010101
          2 -22 rlineto
          221 545 40 hlineto
          hintmask 10011011
          107 -40 vlineto
          -255 -484 rmoveto
          -40 -5 39 45 hvcurveto
          hintmask 10100111
          45 5 40 39 10 22 -3 0 vhcurveto
          -163 vlineto
          hintmask 10011011
          0 -24 -3 -7 vhcurveto
          endchar
        </CharString>
        <CharString name="degree">
          -14 391 113 73 113 hstem
          125 115 72 113 vstem
          125 540 rmoveto
          -89 61 -60 89 89 61 60 89 89 -61 61 -89 -89 -61 -61 -89 vhcurveto
          115 hmoveto
          22 14 15 21 22 15 -15 -22 -21 -15 -15 -22 -21 -14 15 21 vhcurveto
          endchar
        </CharString>
        <CharString name="dieresis">
          -146 559 154 hstem
          24 -1 callsubr
          vstem
          234 559 -87 callsubr
        </CharString>
        <CharString name="dieresis.cap">
          -146 713 144 hstem
          27 12 callgsubr
          vstem
          234 713 -86 callgsubr
        </CharString>
        <CharString name="divide">
          -14 10 140 20 170 20 140 hstem
          175 200 vstem
          43 340 rmoveto
          -170 464 170 vlineto
          -332 20 rmoveto
          200 140 -200 hlineto
          -490 vmoveto
          200 140 -200 hlineto
          endchar
        </CharString>
        <CharString name="dollar">
          -14 -12 186 -165 -21 495 186 hstemhm
          7 229 11 62 9 230 hintmask 01101000
          526 645 rmoveto
          0 -118 19 -99 5 vhcurveto
          82 -62 -82 vlineto
          hintmask 10111100
          -151 -3 -89 -47 -179 vvcurveto
          -137 52 -51 184 -29 vhcurveto
          68 -10 7 -2 -14 vvcurveto
          -16 -11 -7 -40 -96 -150 22 0 vhcurveto
          -9 -173 rlineto
          hintmask 01101000
          0 110 -29 125 -6 vhcurveto
          -73 62 73 vlineto
          hintmask 01111100
          154 5 85 59 161 vvcurveto
          154 -55 24 -187 42 vhcurveto
          -63 14 -7 5 13 vvcurveto
          14 10 4 40 96 138 -15 0 vhcurveto
          endchar
        </CharString>
        <CharString name="dotaccent">
          -218 563 153 hstem
          80 186 vstem
          80 563 -54 callgsubr
        </CharString>
        <CharString name="dotaccent.cap">
          -218 713 143 hstem
          83 180 vstem
          83 713 -25 callgsubr
        </CharString>
        <CharString name="dotlessi">
          -51 callgsubr
          -77 callsubr
          endchar
        </CharString>
        <CharString name="dotlessj">
          9 callsubr
          hstem
          -41 callsubr
          vstem
          28 66 -62 callgsubr
          432 -224 vlineto
          endchar
        </CharString>
        <CharString name="e">
          -76 callsubr
          hstem
          15 224 vstem
          -107 callgsubr
          endchar
        </CharString>
        <CharString name="eacute">
          -76 callsubr
          -5 callsubr
          hstem
          15 224 vstem
          -107 callgsubr
          -104 414 -96 callsubr
          endchar
        </CharString>
        <CharString name="ebreve">
          -76 callsubr
          30 125 8 callsubr
          hintmask 11101000
          -107 callgsubr
          hintmask 11110100
          7 409 -99 callsubr
          -80 30 -80 130 130 30 80 80 vhcurveto
          endchar
        </CharString>
        <CharString name="ecaron">
          -76 callsubr
          -5 callsubr
          hstem
          15 224 vstem
          -107 callgsubr
          -122 248 -85 callgsubr
        </CharString>
        <CharString name="ecircumflex">
          -76 callsubr
          -5 callsubr
          hstem
          15 224 vstem
          -107 callgsubr
          -213 248 -102 callgsubr
          endchar
        </CharString>
        <CharString name="edieresis">
          -76 callsubr
          41 154 hstemhm
          15 224 -150 -1 callsubr
          hintmask 11111010
          -107 callgsubr
          -15 250 rmoveto
          164 154 -164 hlineto
          hintmask 11110110
          -210 -154 rmoveto
          164 154 -164 hlineto
          endchar
        </CharString>
        <CharString name="edotaccent">
          -76 callsubr
          45 153 hstemhm
          15 224 -51 186 hintmask 11111000
          -107 callgsubr
          hintmask 11110100
          -126 254 -54 callgsubr
        </CharString>
        <CharString name="egrave">
          -76 callsubr
          -5 callsubr
          hstem
          15 224 vstem
          -107 callgsubr
          -209 414 -83 callsubr
        </CharString>
        <CharString name="eight">
          -14 -13 169 103 151 95 167 hstemhm
          12 222 -210 218 65 219 -212 222 hintmask 11101100
          274 672 rmoveto
          -142 -108 -43 -135 -86 17 -37 58 -35 hvcurveto
          hintmask 11110010
          -62 -37 -25 -31 -91 vvcurveto
          -151 122 -39 140 140 122 39 149 93 -17 33 -69 34 vhcurveto
          hintmask 11100100
          61 36 15 38 84 vvcurveto
          hintmask 11101100
          145 -110 34 -142 vhcurveto
          hintmask 11110010
          -516 vmoveto
          -27 -13 13 31 37 27 22 0 hvcurveto
          27 hlineto
          0 26 -23 -36 vvcurveto
          -34 -13 -10 -27 vhcurveto
          hintmask 11101100
          -1 349 rmoveto
          26 8 -16 -29 -30 -19 -20 0 hvcurveto
          -27 hlineto
          0 -19 19 31 vvcurveto
          28 5 17 26 vhcurveto
          endchar
        </CharString>
        <CharString name="eight.dnom">
          -195 -69 callgsubr
          202 -106 callsubr
        </CharString>
        <CharString name="eight.numr">
          273 -69 callgsubr
          670 -106 callsubr
        </CharString>
        <CharString name="eight.pnum">
          -83 -9 151 53 139 26 169 hstemhm
          10 164 -154 165 88 165 -154 164 hintmask 10110010
          229 -9 rmoveto
          120 99 47 116 58 -30 33 -30 25 hvcurveto
          hintmask 10101100
          29 21 21 27 53 vvcurveto
          111 -86 47 -123 -123 -86 -47 -111 -53 21 -27 29 -21 vhcurveto
          hintmask 10110000
          -30 -25 -30 -33 -58 vvcurveto
          hintmask 10110010
          -116 99 -47 120 vhcurveto
          hintmask 11110010
          21 204 rmoveto
          18 -8 16 -12 -11 vvcurveto
          -16 -21 -6 -34 -34 -21 6 16 11 16 12 18 8 vhcurveto
          hintmask 11101000
          1 139 rmoveto
          hintmask 10101100
          -13 6 -11 9 11 vvcurveto
          0 8 11 10 33 33 11 -10 0 hflex1
          hintmask 11100100
          -11 -11 -9 -13 -6 vhcurveto
          endchar
        </CharString>
        <CharString name="eightinferior">
          -10 -69 callgsubr
          387 -106 callsubr
        </CharString>
        <CharString name="eightsuperior">
          273 -69 callgsubr
          670 -106 callsubr
        </CharString>
        <CharString name="ellipsis">
          312 0 199 hstem
          27 228 69 228 69 228 vstem
          27 hmoveto
          -36 callgsubr
          297 -199 rmoveto
          -36 callgsubr
          297 -199 rmoveto
          -36 callgsubr
          endchar
        </CharString>
        <CharString name="emacron">
          -76 callsubr
          45 144 hstemhm
          15 224 -126 327 hintmask 11111000
          -107 callgsubr
          hintmask 11110100
          -201 254 -48 callgsubr
        </CharString>
        <CharString name="emdash">
          496 155 197 hstem
          30 1000 vstem
          30 155 rmoveto
          1000 197 -1000 hlineto
          endchar
        </CharString>
        <CharString name="emdash.cap">
          494 237 201 hstem
          29 1000 vstem
          29 237 rmoveto
          1000 201 -1000 hlineto
          endchar
        </CharString>
        <CharString name="endash">
          -4 155 197 hstem
          30 500 vstem
          30 155 21 callsubr
        </CharString>
        <CharString name="endash.cap">
          -6 239 197 hstem
          29 500 vstem
          29 239 21 callsubr
        </CharString>
        <CharString name="eng">
          14 -199 -21 241 13 callgsubr
          hintmask 11101100
          331 66 -62 callgsubr
          180 vlineto
          hintmask 11011100
          -31 callsubr
          hintmask 11101100
          -41 callgsubr
          224 318 vlineto
          0 24 7 19 24 12 -26 -61 vhcurveto
          -158 vlineto
          endchar
        </CharString>
        <CharString name="eogonek">
          -12 -220 115 -94 -21 207 165 35 122 53 156 8 callsubr
          hintmask 10111010
          522 -101 rmoveto
          -65 callsubr
          35 74 64 0 vhcurveto
          -5 145 rlineto
          hintmask 01111100
          0 -143 -9 -92 -34 -14 10 25 -1 vhcurveto
          289 hlineto
          10 99 rlineto
          159 -88 73 -173 -186 -76 -99 -176 -177 67 -79 190 vhcurveto
          14 hlineto
          -23 -21 -19 -29 -41 vvcurveto
          -66 callgsubr
          -297 514 rmoveto
          37 1 8 16 30 hhcurveto
          27 10 -15 -38 hvcurveto
          endchar
        </CharString>
        <CharString name="equal">
          1 callsubr
          432 170 -432 hlineto
          -395 vmoveto
          432 170 -432 hlineto
          endchar
        </CharString>
        <CharString name="eth">
          -35 -9 142 169 139 hstem
          6 170 166 170 vstem
          142 444 rmoveto
          133 89 45 -27 16 -35 7 -48 rlinecurve
          19 -24 -59 -1 -32 hhcurveto
          -155 -67 -90 -134 -157 82 -69 158 188 78 121 233 130 -38 87 -71 55 hvcurveto
          43 29 -21 29 -20 31 -21 29 rlinecurve
          -93 -62 -63 20 -76 9 -87 3 rlinecurve
          -19 -110 38 -6 33 -6 29 -6 rlinecurve
          -67 -44 rlineto
          158 -231 rmoveto
          45 15 0 -16 45 hvcurveto
          -108 -38 -45 -58 -56 -14 35 49 38 15 47 46 vhcurveto
          endchar
        </CharString>
        <CharString name="exclam">
          -274 0 19 callsubr
          31 hmoveto
          228 198 -228 hlineto
          7 46 rmoveto
          214 hlineto
          14 426 rlineto
          -242 hlineto
          endchar
        </CharString>
        <CharString name="exclamdown">
          -274 307 19 callsubr
          259 505 -23 callgsubr
        </CharString>
        <CharString name="exclamdown.cap">
          -274 21 -21 472 19 callsubr
          259 670 -23 callgsubr
        </CharString>
        <CharString name="f">
          -206 21 -21 324 181 23 175 -13 -20 hstemhm
          45 224 hintmask 11011000
          269 324 rmoveto
          80 181 -80 10 hlineto
          hintmask 11101000
          10 20 3 62 vhcurveto
          hintmask 11011000
          162 vlineto
          hintmask 11101000
          0 -70 13 -64 -136 -36 -54 -140 vhcurveto
          -4 vlineto
          hintmask 11011000
          -27 -181 27 -324 224 hlineto
          endchar
        </CharString>
        <CharString name="five">
          -14 -13 182 55 206 29 200 hstemhm
          41 179.5 89.5 221 hintmask 10111000
          48 659 rmoveto
          hintmask 11111000
          -14 -429 148 -18 rlineto
          0 44 12 36 34 14 -8 -20 -19 -19 -8 -32 -90 -135 20 0 vhcurveto
          -17 -163 rlineto
          0 159 -39 105 149 101 61 169 165 -77 48 -147 -46 -43 -15 0 vhcurveto
          hintmask 10111000
          5 44 rlineto
          283 200 hlineto
          endchar
        </CharString>
        <CharString name="five.dnom">
          -195 -22 callgsubr
          34 -39 callsubr
          hintmask 10111000
          38 202 -89 callgsubr
          hintmask 10111000
          -25 callsubr
        </CharString>
        <CharString name="five.numr">
          273 -22 callgsubr
          35 -39 callsubr
          hintmask 00111000
          39 670 -89 callgsubr
          hintmask 00111000
          -25 callsubr
        </CharString>
        <CharString name="five.pnum">
          -83 -9 143 53 146 29 162 hstemhm
          30 159 87 176 hintmask 10111000
          4 23 rmoveto
          -22 74 82 -10 80 hhcurveto
          141 71 68 104 hvcurveto
          hintmask 11111000
          117 -70 53 -132 -24 -17 -2 -5 -22 vhcurveto
          hintmask 10111000
          4 36 rlineto
          241 162 -391 hlineto
          hintmask 11111000
          -22 -321 111 -29 rlineto
          8 23 28 5 29 hhcurveto
          42 24 -8 -19 -19 -25 -7 -39 -42 -93 16 16 -61 hvcurveto
          hintmask 10111000
          -12 -143 rlineto
          endchar
        </CharString>
        <CharString name="fiveinferior">
          -10 -22 callgsubr
          34 -39 callsubr
          hintmask 10111000
          38 387 -89 callgsubr
          hintmask 10111000
          -25 callsubr
        </CharString>
        <CharString name="fivesuperior">
          273 -22 callgsubr
          35 -39 callsubr
          hintmask 00111000
          39 670 -89 callgsubr
          hintmask 00111000
          -25 callsubr
        </CharString>
        <CharString name="florin">
          -193 -195 159 -138 -21 521 70 115 159 hstemhm
          62 214.5 -202.5 215 hintmask 01110100
          370 326 rmoveto
          70 -83 vlineto
          4 79 rlineto
          31 1 13 5 65 hhcurveto
          147 vlineto
          0 -96 12 -32 -120 -40 -46 -133 -6 vhcurveto
          -4 -95 rlineto
          hintmask 10101000
          -69 -70 66 hlineto
          -14 -326 rlineto
          -31 -1 -7 -5 -71 hhcurveto
          -147 vlineto
          0 96 -12 32 130 29 46 133 6 vhcurveto
          15 342 rlineto
          endchar
        </CharString>
        <CharString name="four">
          -14 21 -21 80 188 hstem
          289 227 vstem
          289 hmoveto
          227 80 25 188 -25 120 hlineto
          -206 -7 -20 -113 rlineto
          -49 hlineto
          129 391 rlineto
          -262 hlineto
          -90 -417 rlineto
          -162 271 vlineto
          endchar
        </CharString>
        <CharString name="four.dnom">
          -195 3 callsubr
          -195 rmoveto
          -50 callgsubr
        </CharString>
        <CharString name="four.numr">
          -59 callsubr
        </CharString>
        <CharString name="four.pnum">
          -97 21 -21 77 162 hstem
          241 164 vstem
          241 77 rmoveto
          -77 164 77 48 162 -48 88 -164 -88 -52 vlineto
          132 281 rlineto
          -206 hlineto
          -113 -318 rlineto
          -125 vlineto
          endchar
        </CharString>
        <CharString name="fourinferior">
          0 3 callsubr
          hmoveto
          -50 callgsubr
        </CharString>
        <CharString name="foursuperior">
          -59 callsubr
        </CharString>
        <CharString name="fraction">
          -349 691 -20 hstem
          -112 450 vstem
          -112 5 -38 callgsubr
          endchar
        </CharString>
        <CharString name="g">
          -71 callgsubr
          hstemhm
          12 183 -178 210 78 210 -168 203 hintmask 1100110010000000
          293 -220 -71 callsubr
          hintmask 1110100100000000
          -87 callgsubr
          hintmask 1101001100000000
          0 -60 11 -43 -176 -72 -47 -133 -94 43 -39 38 -18 vhcurveto
          hintmask 1100110000000000
          0 -58 -48 -25 vvcurveto
          -31 14 -29 22 -15 vhcurveto
          -50 -39 -14 -35 -46 vvcurveto
          hintmask 1100110010000000
          -89 callsubr
          hintmask 1111001100000000
          -78 callsubr
          endchar
        </CharString>
        <CharString name="gbreve">
          -71 callgsubr
          38 125 -95 callsubr
          hintmask 1100110010000000
          61 415 -99 callsubr
          -80 30 -80 130 130 30 80 80 vhcurveto
          endchar
        </CharString>
        <CharString name="gcircumflex">
          -71 callgsubr
          47 166 -95 callsubr
          -159 254 -102 callgsubr
          endchar
        </CharString>
        <CharString name="gcommaaccent">
          -71 callgsubr
          53 215 hstemhm
          12 183 -183 541 -536 210 78 210 -168 203 hintmask 1100110100000000
          390 778 rmoveto
          -162 hlineto
          -62 -215 rlineto
          204 hlineto
          hintmask 1100111000100000
          -77 -783 -71 callsubr
          hintmask 1110110001000000
          -87 callgsubr
          hintmask 1101010011000000
          -83 callgsubr
          hintmask 1100111000100000
          -89 callsubr
          hintmask 1111010011000000
          -78 callsubr
          endchar
        </CharString>
        <CharString name="gdotaccent">
          -71 callgsubr
          53 153 hstemhm
          12 183 -178 210 -38 186 -70 210 -168 203 hintmask 1100111000100000
          293 -220 -71 callsubr
          hintmask 1110110001000000
          -87 callgsubr
          hintmask 1101010101000000
          -83 callgsubr
          hintmask 1100111000100000
          -89 callsubr
          hintmask 1111010101000000
          -78 callsubr
          hintmask 1100110010000000
          -77 260 -54 callgsubr
        </CharString>
        <CharString name="germandbls">
          133 -13 161 -148 148 367 188 -24 callgsubr
          hintmask 01110000
          252 hmoveto
          460 vlineto
          42 31 13 56 40 10 -14 -17 -12 -3 -9 -41 -33 vhcurveto
          -41 -33 -16 -23 -50 vvcurveto
          hintmask 10110000
          -49 19 -32 73 -28 vhcurveto
          81 -31 15 -7 -10 vvcurveto
          -13 -15 -6 -23 -61 -78 10 0 vhcurveto
          -7 -147 rlineto
          0 92 -24 116 145 47 56 132 93 -24 30 -95 34 vhcurveto
          -66 23 -13 7 20 vvcurveto
          13 9 7 50 27 vhcurveto
          53 29 9 14 66 vvcurveto
          112 -72 53 -203 -230 -82 -56 -194 vhcurveto
          hintmask 01110000
          -453 vlineto
          endchar
        </CharString>
        <CharString name="grave">
          -141 557 166 hstem
          78 280 vstem
          78 723 -83 callsubr
        </CharString>
        <CharString name="grave.cap">
          -141 11 callsubr
          43 276 vstem
          43 849 -73 callgsubr
          endchar
        </CharString>
        <CharString name="greater">
          -14 8 -21 530 -20 hstem
          87 386 vstem
          326 261 rmoveto
          -239 -43 rlineto
          -231 vlineto
          386 158 rlineto
          221 vlineto
          -386 151 rlineto
          -224 vlineto
          endchar
        </CharString>
        <CharString name="greaterequal">
          -14 31 160 hstem
          64 42 vstem
          326 350 rmoveto
          -262 -34 rlineto
          -186 vlineto
          42 12 rlineto
          49 162 vlineto
          220 66 rlineto
          178 vlineto
          -424 122 rlineto
          -181 vlineto
          42 -345 rmoveto
          376 160 -214 hlineto
          -162 -49 rlineto
          endchar
        </CharString>
        <CharString name="guillemotleft">
          60 10 486 hstem
          14 591 vstem
          335 422 -54 callsubr
          384 169 -54 callsubr
          endchar
        </CharString>
        <CharString name="guillemotright">
          60 10 486 hstem
          19 591 vstem
          19 84 -53 callgsubr
          156 -169 -53 callgsubr
          endchar
        </CharString>
        <CharString name="guilsinglleft">
          -210 14 486 hstem
          14 321 vstem
          335 426 -54 callsubr
          endchar
        </CharString>
        <CharString name="guilsinglright">
          -210 6 486 hstem
          19 321 vstem
          19 80 -53 callgsubr
          endchar
        </CharString>
        <CharString name="h">
          14 21 -21 518 -20 192 -20 -57 callgsubr
          endchar
        </CharString>
        <CharString name="hbar">
          14 21 -21 518 -20 47 107 -107 145 -24 callgsubr
          0 61 18 224 hintmask 10011010
          252 hmoveto
          319 vlineto
          0 24 6 17 27 11 20 callgsubr
          261 vlineto
          hintmask 11011010
          190 -51 67 -145 -37 -70 -17 0 vhcurveto
          hintmask 10011010
          44 vlineto
          hintmask 10010110
          61 hlineto
          hintmask 10100110
          107 vlineto
          hintmask 10101010
          -61 hlineto
          hintmask 10011010
          38 -224 vlineto
          hintmask 10101010
          -38 -40 vlineto
          hintmask 10011010
          -107 40 -545 vlineto
          endchar
        </CharString>
        <CharString name="hcircumflex">
          14 21 -21 518 -20 192 -20 71 166 -57 callgsubr
          86 741 -102 callgsubr
          endchar
        </CharString>
        <CharString name="hungarumlaut">
          -101 559 166 hstem
          9 445 vstem
          42 725 -60 callsubr
        </CharString>
        <CharString name="hungarumlaut.cap">
          -101 11 callsubr
          14 435 vstem
          47 849 -60 callgsubr
        </CharString>
        <CharString name="hyphen">
          -208 161 181 hstem
          29 298 vstem
          29 161 22 callsubr
        </CharString>
        <CharString name="hyphen.cap">
          -208 211 181 hstem
          29 298 vstem
          29 211 22 callsubr
        </CharString>
        <CharString name="i">
          -51 callgsubr
          52 153 -77 callsubr
          -1 32 22 callgsubr
        </CharString>
        <CharString name="iacute">
          -51 callgsubr
          72 166 -77 callsubr
          53 218 -96 callsubr
          endchar
        </CharString>
        <CharString name="ibreve">
          -51 callgsubr
          63 125 -77 callsubr
          153 213 -99 callsubr
          -80 30 -80 130 130 30 80 80 vhcurveto
          endchar
        </CharString>
        <CharString name="icircumflex">
          -51 callgsubr
          72 166 -77 callsubr
          -63 52 -102 callgsubr
          endchar
        </CharString>
        <CharString name="idieresis">
          -51 callgsubr
          74 154 hstem
          28 88 46 90 vstem
          28 hmoveto
          224 -18 callsubr
          hlineto
          134 54 -87 callsubr
        </CharString>
        <CharString name="igrave">
          -51 callgsubr
          72 166 -77 callsubr
          -66 218 -83 callsubr
        </CharString>
        <CharString name="imacron">
          -51 callgsubr
          78 144 -77 callsubr
          -55 58 -48 callgsubr
        </CharString>
        <CharString name="infinity">
          109 126 140 150 141 hstem
          24 113 399 113 vstem
          167 126 rmoveto
          68 58 35 55 43 hvcurveto
          -55 43 57 -35 67 hhcurveto
          100 46 83 132 133 -46 83 -98 -69 -56 -35 -56 -44 hvcurveto
          56 -43 -58 35 -68 hhcurveto
          -98 -45 -83 -133 -132 45 -83 98 hvcurveto
          105 215 rmoveto
          -65 -29 -25 -10 -39 hhcurveto
          -15 -27 10 65 65 27 10 15 39 25 -10 -65 29 hvcurveto
          129 hmoveto
          65 30 24 10 39 hhcurveto
          16 26 -10 -65 -65 -27 -10 -15 -39 -24 10 65 -30 hvcurveto
          endchar
        </CharString>
        <CharString name="integral">
          -14 -195 159 567 159 hstem
          73 404 vstem
          152 -16 rmoveto
          -19 -19 -1 -60 vhcurveto
          -147 vlineto
          0 96 -12 32 130 25 46 133 10 vhcurveto
          32 527 rlineto
          19 1 18 1 60 hhcurveto
          147 vlineto
          0 -96 12 -32 -130 -25 -46 -133 -10 vhcurveto
          endchar
        </CharString>
        <CharString name="iogonek">
          -284 -220 115 126 -21 505 -20 52 153 hstem
          -41 callsubr
          vstem
          238 -101 rmoveto
          -65 callsubr
          35 82 48 0 vhcurveto
          -18 callsubr
          -499 vlineto
          -32 -20 -36 -35 -55 vvcurveto
          -66 callgsubr
          -224 742 22 callgsubr
        </CharString>
        <CharString name="itilde">
          -51 callgsubr
          62 -33 callgsubr
          28 224 hintmask 11011000
          28 hmoveto
          224 -18 callsubr
          hlineto
          hintmask 11101000
          266 222 -51 callsubr
          hintmask 11011000
          -94 callgsubr
          hintmask 11101000
          -81 callgsubr
        </CharString>
        <CharString name="j">
          9 callsubr
          53 152 hstem
          -41 callsubr
          vstem
          27 538 rmoveto
          226 152 -226 hlineto
          1 -624 -62 callgsubr
          432 -224 vlineto
          endchar
        </CharString>
        <CharString name="jcircumflex">
          9 callsubr
          72 166 hstem
          -41 callsubr
          vstem
          28 66 -62 callgsubr
          432 -224 vlineto
          -63 52 -102 callgsubr
          endchar
        </CharString>
        <CharString name="k">
          -11 21 -21 148 195 162 -20 205 -20 hstem
          -41 callsubr
          vstem
          252 hmoveto
          -46 callsubr
        </CharString>
        <CharString name="kcommaaccent">
          -11 -27 callsubr
          148 195 162 -20 205 -20 hstem
          -41 callsubr
          vstem
          178 -88 callsubr
          54 45 rmoveto
          -46 callsubr
        </CharString>
        <CharString name="l">
          -284 21 -21 690 -20 hstem
          -41 callsubr
          vstem
          28 hmoveto
          224 690 -224 hlineto
          endchar
        </CharString>
        <CharString name="lacute">
          -284 21 -21 690 -20 71 166 hstem
          -41 callsubr
          vstem
          28 hmoveto
          224 690 -224 hlineto
          43 217 -96 callsubr
          endchar
        </CharString>
        <CharString name="lcaron">
          -105 21 -21 454 215 -215 236 -24 callgsubr
          hintmask 10110000
          292 454 rmoveto
          162 hlineto
          hintmask 11010000
          62 215 rlineto
          -204 hlineto
          -284 -669 rmoveto
          224 hlineto
          hintmask 10110000
          690 -224 vlineto
          endchar
        </CharString>
        <CharString name="lcommaaccent">
          -284 -27 callsubr
          690 -20 hstem
          -41 callsubr
          vstem
          28 -88 callsubr
          -20 45 rmoveto
          224 690 -224 hlineto
          endchar
        </CharString>
        <CharString name="less">
          -14 8 -21 530 -20 hstem
          76 386 vstem
          462 293 rmoveto
          224 vlineto
          -386 -151 rlineto
          -221 vlineto
          386 -158 rlineto
          231 vlineto
          -239 43 rlineto
          endchar
        </CharString>
        <CharString name="lessequal">
          -14 31 160 hstem
          59 424 vstem
          483 376 rmoveto
          181 vlineto
          -424 -122 rlineto
          -178 vlineto
          220 -66 rlineto
          -191 -160 376 104 hlineto
          19 -5 rlineto
          186 vlineto
          -262 34 rlineto
          endchar
        </CharString>
        <CharString name="logicalnot">
          -14 392 151 hstem
          386 151 vstem
          537 543 rmoveto
          -536 -151 385 -161 151 hlineto
          endchar
        </CharString>
        <CharString name="lozenge">
          -14 0 174 312 174 hstem
          -1 552 vstem
          158 hmoveto
          235 hlineto
          158 324 -158 336 rlineto
          -235 hlineto
          -159 -336 rlineto
          285 -150 rmoveto
          -17 hlineto
          -55 150 55 162 rlineto
          17 hlineto
          54 -162 rlineto
          endchar
        </CharString>
        <CharString name="lslash">
          -256 21 -21 690 -20 hstem
          41 224 vstem
          4 131 rmoveto
          37 18 rlineto
          -149 224 261 vlineto
          39 20 rlineto
          187 vlineto
          -39 -20 rlineto
          242 -224 -354 vlineto
          -37 -18 rlineto
          endchar
        </CharString>
        <CharString name="m">
          297 21 -21 325 193 -39 26 -24 callgsubr
          69 224 69 224 cntrmask 00011100
          hintmask 10111100
          252 hmoveto
          hintmask 11011100
          320 vlineto
          0 17 5 20 24 8 -36 -61 vhcurveto
          -228 224 232 vlineto
          35 -2 37 -5 15 vhcurveto
          0 23 6 20 24 9 -36 -61 vhcurveto
          -228 224 255 vlineto
          174 -40 89 -163 -79 -71 -45 0 vhcurveto
          25 -23 -33 20 -55 hhcurveto
          hintmask 10111100
          -57 -66 -37 callgsubr
          vlineto
          endchar
        </CharString>
        <CharString name="macron">
          -121 563 144 hstem
          60 327 vstem
          60 563 -48 callgsubr
        </CharString>
        <CharString name="macron.cap">
          -121 11 callsubr
          63 321 vstem
          63 713 -49 callsubr
        </CharString>
        <CharString name="minus">
          -14 164 180 hstem
          62 426 vstem
          62 164 rmoveto
          426 180 -426 hlineto
          endchar
        </CharString>
        <CharString name="mu">
          -14 0 180 325 -20 hstem
          21 224 70 224 vstem
          315 -9 callsubr
          -319 vlineto
          0 -22 -6 -22 -20 -6 18 61 vhcurveto
          246 -224 -753 224 248 vlineto
          42 3 29 19 0 vvcurveto
          1 -22 rlineto
          222 505 hlineto
          endchar
        </CharString>
        <CharString name="multiply">
          -14 3 500 hstem
          25 500 vstem
          148 503 rmoveto
          -123 -122 126 -128 -126 -128 123 -122 126 126 128 -126 123 123 -127 127 127 127 -124 123 -127 -127 rlineto
          endchar
        </CharString>
        <CharString name="n">
          14 21 13 callgsubr
          hintmask 11011000
          252 hmoveto
          -72 callgsubr
          hintmask 10111000
          -31 callsubr
          hintmask 11011000
          -49 callgsubr
          endchar
        </CharString>
        <CharString name="nacute">
          -69 callsubr
          185 723 -96 callsubr
          endchar
        </CharString>
        <CharString name="ncaron">
          -69 callsubr
          169 557 -85 callgsubr
        </CharString>
        <CharString name="ncommaaccent">
          14 -260 215 66 13 callgsubr
          hintmask 11101100
          179 -88 callsubr
          53 45 rmoveto
          -72 callgsubr
          hintmask 11011100
          -31 callsubr
          hintmask 11101100
          -49 callgsubr
          endchar
        </CharString>
        <CharString name="nine">
          -14 -13 183 50 177 97 178 hstem
          14 204 102 213 vstem
          31 21 rmoveto
          0 138 -34 84 157 123 72 277 221 -82 115 -186 -150 -101 -69 -156 -158 70 -69 152 48 35 19 -1 vhcurveto
          -43 -4 -18 -25 -54 hhcurveto
          -84 -112 17 0 hvcurveto
          216 210 rmoveto
          -29 -16 13 35 29 12 20 35 47 8 -28 -57 0 -22 -12 -35 hvcurveto
          endchar
        </CharString>
        <CharString name="nine.dnom">
          -195 106 -85 -21 135 102 56 -13 callsubr
          hintmask 01011100
          33 -176 -75 callgsubr
        </CharString>
        <CharString name="nine.numr">
          -82 callgsubr
        </CharString>
        <CharString name="nine.pnum">
          -103 -9 153 23 145 64 153 hstemhm
          -1 164 124 168 hintmask 10111000
          455 256 rmoveto
          197 -81 76 -142 -136 -97 -64 -118 vhcurveto
          hintmask 11111000
          -133 81 -47 118 32 34 6 9 23 vhcurveto
          hintmask 10111000
          -27 -3 -11 -11 -56 hhcurveto
          -29 -38 2 9 -114 hvcurveto
          -12 -150 rlineto
          -11 87 61 -3 45 hhcurveto
          126 112 68 197 hvcurveto
          hintmask 11111000
          -171 71 rmoveto
          -11 -26 -22 -4 -16 hhcurveto
          -37 -20 8 25 23 25 8 34 29 28 -20 -29 5 hvcurveto
          endchar
        </CharString>
        <CharString name="nineinferior">
          -10 106 -85 -21 135 102 56 -13 callsubr
          hintmask 01011100
          33 9 -75 callgsubr
        </CharString>
        <CharString name="ninesuperior">
          -82 callgsubr
        </CharString>
        <CharString name="notequal">
          1 callsubr
          165 hlineto
          -28 -55 rlineto
          -137 -170 50 hlineto
          -41 -80 rlineto
          134 hlineto
          40 80 rlineto
          249 170 -163 hlineto
          28 55 rlineto
          135 170 -49 hlineto
          39 76 rlineto
          -131 hlineto
          -39 -76 rlineto
          -252 hlineto
          endchar
        </CharString>
        <CharString name="ntilde">
          14 21 10 callsubr
          49 141 -97 140 -31 callgsubr
          hintmask 11001110
          252 hmoveto
          -72 callgsubr
          hintmask 10101110
          -31 callsubr
          hintmask 11010110
          -49 callgsubr
          422 727 -51 callsubr
          hintmask 11001110
          -94 callgsubr
          hintmask 11010110
          -81 callgsubr
        </CharString>
        <CharString name="numbersign">
          -14 21 -21 113 177 80 177 hstemhm
          58.5 176 -168.5 176 -169 176 47.5 177 -169.5 177 -170 177 hintmask 1111001000000000
          57 hmoveto
          176 hlineto
          3 113 rlineto
          62 hlineto
          -3 -113 rlineto
          177 hlineto
          3 113 rlineto
          hintmask 1111000100000000
          57 hlineto
          4 177 rlineto
          -56 hlineto
          2 80 rlineto
          hintmask 1110010010000000
          55 hlineto
          7 177 rlineto
          -58 hlineto
          4 123 rlineto
          -177 hlineto
          -4 -123 rlineto
          -62 hlineto
          4 123 rlineto
          -176 hlineto
          -4 -123 rlineto
          hintmask 1110101000000000
          -52 hlineto
          -7 -177 rlineto
          55 hlineto
          -2 -80 rlineto
          hintmask 1111001000000000
          -53 hlineto
          -7 -177 rlineto
          55 hlineto
          hintmask 1110100100000000
          183 257 rmoveto
          62 hlineto
          -2 -80 rlineto
          -62 hlineto
          endchar
        </CharString>
        <CharString name="o">
          -64 callgsubr
          hstem
          -48 callsubr
          vstem
          -107 callsubr
          endchar
        </CharString>
        <CharString name="oacute">
          -64 callgsubr
          -5 callsubr
          hstem
          -48 callsubr
          vstem
          -107 callsubr
          -55 555 -96 callsubr
          endchar
        </CharString>
        <CharString name="obreve">
          -64 callgsubr
          30 125 hstemhm
          -48 callsubr
          hintmask 11011000
          -107 callsubr
          hintmask 11111000
          46 550 -99 callsubr
          -80 30 -80 130 130 30 80 80 vhcurveto
          endchar
        </CharString>
        <CharString name="ocircumflex">
          -64 callgsubr
          -5 callsubr
          hstem
          -48 callsubr
          vstem
          -107 callsubr
          -175 389 -102 callgsubr
          endchar
        </CharString>
        <CharString name="odieresis">
          -64 callgsubr
          41 154 hstemhm
          15 226 -146 -1 callsubr
          -146 226 hintmask 11110010
          -107 callsubr
          hintmask 11101100
          23 391 -87 callsubr
        </CharString>
        <CharString name="oe">
          296 -13 165 -165 181 19 122 28 181 -156 156 hstemhm
          15 226 383 222 hintmask 10101110
          596 -79 callgsubr
          289 hlineto
          10 99 rlineto
          159 -88 73 -173 -70 -45 -17 -31 -28 vhcurveto
          32 -31 -50 16 -79 hhcurveto
          -173 -94 -73 -192 -195 94 -71 173 72 48 14 30 32 hvcurveto
          -29 27 45 -15 74 15 callgsubr
          0 -143 -9 -92 vhcurveto
          hintmask 01110110
          -314 16 rmoveto
          -31 -10 20 65 64 10 20 31 31 10 -19 -65 -65 -10 -20 -31 hvcurveto
          hintmask 10101110
          264 141 -21 callsubr
          endchar
        </CharString>
        <CharString name="ogonek">
          269 -220 115 hstem
          189 210 vstem
          467 -101 rmoveto
          -65 callsubr
          35 74 64 0 vhcurveto
          -163 15 rlineto
          0 -121 -34 -101 vvcurveto
          -66 callgsubr
          endchar
        </CharString>
        <CharString name="ogonek.cap">
          269 -220 115 126 -21 hstem
          189 210 vstem
          467 -101 rmoveto
          -65 callsubr
          35 82 48 0 vhcurveto
          -171 31 rlineto
          0 -121 -34 -101 vvcurveto
          -66 callgsubr
          endchar
        </CharString>
        <CharString name="ograve">
          -64 callgsubr
          -5 callsubr
          hstem
          -48 callsubr
          vstem
          -107 callsubr
          -182 555 -83 callsubr
        </CharString>
        <CharString name="ohungarumlaut">
          -64 callgsubr
          41 166 hstem
          -48 callsubr
          vstem
          -107 callsubr
          -162 557 -60 callsubr
        </CharString>
        <CharString name="omacron">
          -64 callgsubr
          45 144 hstemhm
          15 226 -122 327 -123 226 hintmask 11110100
          -107 callsubr
          hintmask 11101000
          -163 395 -48 callgsubr
        </CharString>
        <CharString name="one">
          -14 21 -21 hstem
          240 227 vstem
          42 523 rmoveto
          60 -162 138 55 rlineto
          -416 227 659 -191 vlineto
          endchar
        </CharString>
        <CharString name="one.dnom">
          -174 -21 208 -21 hstem
          140 157 vstem
          21 120 -74 callsubr
          endchar
        </CharString>
        <CharString name="one.numr">
          273 397 hstem
          140 157 vstem
          21 588 -74 callsubr
          endchar
        </CharString>
        <CharString name="one.pnum">
          -200 21 -21 hstem
          162 164 vstem
          40 252 rmoveto
          24 14 29 14 26 14 14 8 14 7 15 7 rrcurveto
          -316 164 520 -127 vlineto
          -220 -129 rlineto
          endchar
        </CharString>
        <CharString name="onehalf">
          395 0 -7 callgsubr
          290 -20 hstemhm
          140 157 348 258 -119 126 hintmask 11111000
          258 5 -38 callgsubr
          -540 -167 -74 callsubr
          741 -670 rmoveto
          117 -108 vlineto
          hintmask 11110100
          20 15 rlineto
          68 65 27 18 67 vvcurveto
          78 -40 41 -101 -56 -66 -16 0 vhcurveto
          6 -103 rlineto
          0 47 5 38 36 10 -8 -15 -31 -28 -17 -56 -54 vhcurveto
          hintmask 11111000
          -55 -50 rlineto
          -112 vlineto
          endchar
        </CharString>
        <CharString name="oneinferior">
          21 -21 hstem
          140 157 vstem
          21 315 -74 callsubr
          endchar
        </CharString>
        <CharString name="onequarter">
          404 0 161 -113 113 530 -20 hstemhm
          140 157 463 147 hintmask 10111000
          21 588 -74 callsubr
          96 -665 -38 callgsubr
          199 -755 rmoveto
          147 hlineto
          hintmask 01111000
          48 15 vlineto
          hintmask 10111000
          113 -15 73 vlineto
          -67 callgsubr
          hintmask 01111000
          -37 callsubr
          endchar
        </CharString>
        <CharString name="onesuperior">
          273 397 hstem
          140 157 vstem
          21 588 -74 callsubr
          endchar
        </CharString>
        <CharString name="ordfeminine">
          -213 379 84 27.5 65.5 16 94 hstemhm
          16 131 41 130 hintmask 10101000
          318 571 rmoveto
          69 -45 26 -105 -68 -71 -19 0 vhcurveto
          2 -82 rlineto
          0 76 7 57 15 9 -3 -7 vhcurveto
          -5 vlineto
          hintmask 11111000
          -47 -2 rlineto
          -70 -2 -55 -11 -71 vvcurveto
          hintmask 10111000
          -64 42 -28 68 vhcurveto
          45 36 19 0 0 28 39 hflex
          14 44 6 0 hvcurveto
          2 78 -5 1 -8 2 -3 2 rlinecurve
          hintmask 11101000
          -130 23 rmoveto
          hintmask 10111000
          -20 vlineto
          0 -8 -8 -12 -18 -3 3 8 vhcurveto
          hintmask 11111000
          8 6 7 17 1 vhcurveto
          endchar
        </CharString>
        <CharString name="ordmasculine">
          -211 379 100 87 100 hstem
          15 131 61 131 vstem
          177 666 rmoveto
          -114 -48 -40 -103 -105 48 -39 114 114 47 39 105 103 -47 40 -114 hvcurveto
          -187 vmoveto
          -21 -10 11 33 32 9 11 22 21 9 -10 -33 -33 -9 -11 -21 hvcurveto
          endchar
        </CharString>
        <CharString name="oslash">
          13 callsubr
          hstemhm
          -48 callsubr
          hintmask 01011100
          -68 callgsubr
          hintmask 10101100
          287 198 -16 callsubr
        </CharString>
        <CharString name="oslashacute">
          13 callsubr
          59 166 hstemhm
          -48 callsubr
          hintmask 01011110
          -68 callgsubr
          192 753 -96 callsubr
          hintmask 10101110
          -142 -555 -16 callsubr
        </CharString>
        <CharString name="otilde">
          -64 callgsubr
          29 -33 callgsubr
          -48 callsubr
          hintmask 11011100
          -107 callsubr
          hintmask 11101100
          154 559 -51 callsubr
          hintmask 11011100
          -94 callgsubr
          hintmask 11101100
          -81 callgsubr
        </CharString>
        <CharString name="p">
          6 -174 -21 182 181 -160 -21 34 -21 337 168 -26 26 13 -20 -24 callgsubr
          76 226 hintmask 1001010100000000
          249 -9 callsubr
          -221 -700 21 callgsubr
          hintmask 1010001110000000
          16 callgsubr
          hvcurveto
          hintmask 1001010100000000
          -56 -49 -39 0 hvcurveto
          hintmask 1100100110000000
          33 -142 rmoveto
          1 callgsubr
          0 23 7 9 vhcurveto
          endchar
        </CharString>
        <CharString name="paragraph">
          14 21 -21 511 189 hstem
          259 228 vstem
          557 511 rmoveto
          189 -303 vlineto
          -133 -105 -111 -135 -135 103 -109 133 hvcurveto
          7 -210 228 511 hlineto
          endchar
        </CharString>
        <CharString name="parenleft">
          -238 -125 875 hstem
          16 227 vstem
          115 750 -43 callsubr
        </CharString>
        <CharString name="parenleft.cap">
          -238 -103 875 hstem
          16 227 vstem
          115 772 -43 callsubr
        </CharString>
        <CharString name="parenright">
          -238 -120 875 hstem
          83 227 vstem
          211 -120 -42 callsubr
        </CharString>
        <CharString name="parenright.cap">
          -238 -103 875 hstem
          83 227 vstem
          211 -103 -42 callsubr
        </CharString>
        <CharString name="partialdiff">
          -14 -13 168 123 170 72 170 hstem
          18 195 110 195 vstem
          68 475 rmoveto
          0 112 45 59 47 24 -23 -58 8 vhcurveto
          0 -51 9 -22 -143 -84 -82 -145 -155 86 -79 155 182 77 115 232 234 -77 122 -183 -91 -104 -53 0 vhcurveto
          197 -359 rmoveto
          26 24 -3 -4 13 hvcurveto
          -83 -2 -25 -33 -37 hhcurveto
          -30 -16 29 37 33 15 24 32 hvcurveto
          endchar
        </CharString>
        <CharString name="percent">
          102 -32 callsubr
          hintmask 1101011010000000
          228 -59 rmoveto
          43 -8 rlineto
          hintmask 1100101010000000
          159 759 rlineto
          hintmask 1101010110000000
          -44 9 rlineto
          -225 -33 rmoveto
          hintmask 1011011010000000
          -55 callsubr
          hintmask 1011010110000000
          -8 callsubr
          hvcurveto
          hintmask 1101010110000000
          -7 callsubr
          vhcurveto
          hintmask 1011011010000000
          -84 callsubr
          hintmask 1101011001000000
          344 -217 rmoveto
          hintmask 1101011010000000
          -55 callsubr
          hintmask 1101011001000000
          -8 callsubr
          -7 callsubr
          hvcurveto
          hintmask 1101011010000000
          -84 callsubr
          endchar
        </CharString>
        <CharString name="period">
          -282 0 199 hstem
          27 228 vstem
          27 hmoveto
          -36 callgsubr
          endchar
        </CharString>
        <CharString name="periodcentered">
          -299 149 200 hstem
          30 205 vstem
          30 149 23 callgsubr
        </CharString>
        <CharString name="periodcentered.cap">
          -301 219 200 hstem
          29 205 vstem
          29 219 23 callgsubr
        </CharString>
        <CharString name="perthousand">
          414 -32 callsubr
          24 144 0 144 hintmask 1101011010100000
          228 -59 rmoveto
          43 -8 rlineto
          hintmask 0000100010000000
          159 759 rlineto
          hintmask 0001010110000000
          -44 9 rlineto
          -225 -33 rmoveto
          hintmask 0011011000000000
          -55 callsubr
          hintmask 0010000100000000
          -8 callsubr
          hvcurveto
          hintmask 0001010110000000
          -7 callsubr
          vhcurveto
          hintmask 0011001000000000
          -84 callsubr
          hintmask 0100000001000000
          344 -217 rmoveto
          hintmask 1100000010000000
          -55 callsubr
          hintmask 1000000001000000
          -8 callsubr
          hvcurveto
          hintmask 0100000001000000
          -7 callsubr
          vhcurveto
          hintmask 1100000010010000
          -84 callsubr
          312 106 rmoveto
          hintmask 1100000000100000
          -55 callsubr
          hintmask 1000000000010000
          -8 callsubr
          hvcurveto
          hintmask 1100000010010000
          -7 callsubr
          vhcurveto
          hintmask 1100000000100000
          -84 callsubr
          endchar
        </CharString>
        <CharString name="pi">
          -14 0 164 131 205 16 -20 hstemhm
          18 61 -9 175 24 155 -40 144 hintmask 10110100
          269 154 rmoveto
          -124 6 67 -30 171 hhcurveto
          164 vlineto
          -77 -12 -3 103 hvcurveto
          32 vlineto
          hintmask 10110010
          70 3 34 12 0 vvcurveto
          205 vlineto
          hintmask 11010010
          -49 -16 -95 0 0 vvcurveto
          -216 hlineto
          0 -93 -2 -57 -11 vhcurveto
          -205 vlineto
          0 18 5 43 4 vhcurveto
          hintmask 11001100
          -18 -291 rlineto
          175 hlineto
          18 295 rlineto
          hintmask 11010100
          15 hlineto
          endchar
        </CharString>
        <CharString name="plus">
          -14 164 180 hstem
          185 180 vstem
          44 164 rmoveto
          141 -141 180 141 141 180 -141 139 -180 -139 -141 hlineto
          endchar
        </CharString>
        <CharString name="plusminus">
          -14 0 170 81 170 84 -20 hstem
          185 180 vstem
          44 251 rmoveto
          141 -71 180 71 141 170 -141 84 -180 -84 -141 hlineto
          -251 vmoveto
          -170 462 170 vlineto
          endchar
        </CharString>
        <CharString name="product">
          -14 584 175 hstem
          51 190 66 189 vstem
          307 -181 rmoveto
          189 765 49 175 -540 -175 46 -765 190 765 66 hlineto
          endchar
        </CharString>
        <CharString name="q">
          6 8 -21 351 181 hstem
          16 0 callgsubr
          vstem
          214 -13 rmoveto
          38 66 17 0 hvcurveto
          -198 224 696 vlineto
          0 -171 17 -81 -189 -85 -71 -203 -151 50 -107 148 vhcurveto
          72 351 rmoveto
          19 13 -3 0 hvcurveto
          -160 vlineto
          0 -21 -6 -11 -30 -14 16 65 47 7 41 37 vhcurveto
          endchar
        </CharString>
        <CharString name="question">
          -91 0 180 343 180 hstemhm
          88 228 -86 226 hintmask 11010000
          456 496 rmoveto
          152 -67 55 -157 -102 -113 -37 0 vhcurveto
          7 -157 rlineto
          0 76 14 67 47 16 -11 -24 -28 -7 -7 -46 -34 vhcurveto
          -72 -53 -15 -22 -48 vvcurveto
          -48 23 -31 0 vhcurveto
          175 hlineto
          1 19 1 17 17 21 61 43 rlinecurve
          64 45 24 30 104 vvcurveto
          hintmask 11100000
          -368 -496 rmoveto
          228 180 -228 hlineto
          endchar
        </CharString>
        <CharString name="questiondown">
          -93 -198 180 35 -21 329 180 hstemhm
          16 226 -86 228 hintmask 11110000
          16 9 12 callsubr
          hintmask 01101000
          -7 157 rlineto
          hintmask 11110000
          7 callgsubr
          hintmask 01101000
          -4 callsubr
          hintmask 01110000
          -1 -17 -17 -21 -61 -43 rrcurveto
          hintmask 11110000
          -64 -45 -24 -30 -104 vvcurveto
          hintmask 01101000
          8 callgsubr
        </CharString>
        <CharString name="questiondown.cap">
          -117 -33 180 343 180 hstemhm
          4 226 -86 228 hintmask 11100000
          4 174 12 callsubr
          -7 157 rlineto
          7 callgsubr
          hintmask 01010000
          -4 callsubr
          hintmask 01100000
          -1 -17 -17 -21 -61 -43 rrcurveto
          hintmask 11100000
          -64 -45 -24 -30 -104 vvcurveto
          hintmask 01010000
          8 callgsubr
        </CharString>
        <CharString name="quotedbl">
          -20 420 250 hstem
          13 517 vstem
          45 420 -15 callsubr
          310 -250 -15 callsubr
          endchar
        </CharString>
        <CharString name="quotedblbase">
          -24 -108 281 hstem
          11 517 vstem
          11 -108 -55 callgsubr
          245 -281 -55 callgsubr
          endchar
        </CharString>
        <CharString name="quotedblleft">
          -20 389 281 hstem
          8 517 vstem
          259 670 -14 callgsubr
          287 281 -14 callgsubr
          endchar
        </CharString>
        <CharString name="quotedblright">
          -23 389 281 hstem
          19 517 vstem
          19 389 -55 callgsubr
          245 -281 -55 callgsubr
          endchar
        </CharString>
        <CharString name="quoteleft">
          -286 389 281 hstem
          8 251 vstem
          259 670 -14 callgsubr
          endchar
        </CharString>
        <CharString name="quoteright">
          -289 389 281 hstem
          19 251 vstem
          19 389 -55 callgsubr
          endchar
        </CharString>
        <CharString name="quotesinglbase">
          -290 -108 281 hstem
          11 251 vstem
          11 -108 -55 callgsubr
          endchar
        </CharString>
        <CharString name="quotesingle">
          -298 420 250 hstem
          13 239 vstem
          45 420 -15 callsubr
          endchar
        </CharString>
        <CharString name="r">
          -196 21 -21 458 47 13 -20 -24 callgsubr
          0 106 hintmask 11010000
          252 274 rmoveto
          hintmask 10101000
          -12 callgsubr
          hintmask 11010000
          -44 callgsubr
          endchar
        </CharString>
        <CharString name="racute">
          -59 callgsubr
          -152 723 -96 callsubr
          endchar
        </CharString>
        <CharString name="radical">
          126 265 184 hstem
          0 690 vstem
          265 vmoveto
          100 hlineto
          121 -394 rlineto
          243 hlineto
          226 920 rlineto
          -232 hlineto
          -116 -663 -63 321 rlineto
          -279 hlineto
          endchar
        </CharString>
        <CharString name="rcaron">
          -59 callgsubr
          -156 557 -85 callgsubr
        </CharString>
        <CharString name="rcommaaccent">
          -196 -27 callsubr
          458 47 13 -20 -24 callgsubr
          0 106 hintmask 11101000
          28 -88 callsubr
          204 319 rmoveto
          hintmask 11010100
          -12 callgsubr
          hintmask 11101000
          -44 callgsubr
          endchar
        </CharString>
        <CharString name="registered">
          33 150 60 159 71 79 72 67 60 hstem
          23 62 93 96 61 93 84 15 callsubr
          158 168 108 123 161 155 -108 129 -168 -159 18 callgsubr
          93 102 120 20 callsubr
          -124 -119 -94 102 122 vhcurveto
          189 -158 rmoveto
          93 29 vlineto
          28 -93 rlineto
          100 hlineto
          -41 110 rlineto
          29 24 9 24 52 vvcurveto
          76 -49 29 -65 vhcurveto
          -136 -315 hlineto
          95 243 rmoveto
          27 hlineto
          24 11 -16 -24 -23 -11 -16 -23 hvcurveto
          -28 hlineto
          endchar
        </CharString>
        <CharString name="ring">
          -68 543 77 43 78 hstem
          134 104 61 103 vstem
          134 642 -74 callgsubr
          endchar
        </CharString>
        <CharString name="ring.cap">
          -68 702 74 43 75 hstem
          131 107 61 106 vstem
          131 798 rmoveto
          -69 58 -27 79 83 54 32 64 -22 callsubr
          -17 callsubr
        </CharString>
        <CharString name="s">
          -75 -13 -19 callsubr
          hstem
          19 453 vstem
          465 492 -105 callgsubr
          endchar
        </CharString>
        <CharString name="sacute">
          -75 -13 -19 callsubr
          -5 callsubr
          hstem
          19 453 vstem
          465 492 -105 callgsubr
          -264 388 -96 callsubr
          endchar
        </CharString>
        <CharString name="scaron">
          -75 -13 -19 callsubr
          -5 callsubr
          hstem
          19 453 vstem
          465 492 -105 callgsubr
          -296 222 -85 callgsubr
        </CharString>
        <CharString name="scedilla">
          -75 -30 callgsubr
          68 20 -19 callsubr
          hstemhm
          180 73 -26 164 hintmask 10111010
          391 -123 rmoveto
          hintmask 01111100
          -27 callgsubr
          hintmask 01011100
          20 vlineto
          144 1 75 48 127 vvcurveto
          110 -42 42 -122 13 vhcurveto
          -57 6 -8 2 5 vvcurveto
          6 9 2 23 58 124 -14 0 vhcurveto
          8 157 rlineto
          0 -94 26 -128 -130 -94 -39 -145 -105 44 -42 112 -15 vhcurveto
          60 -8 13 -2 -5 vvcurveto
          -7 -10 -2 -24 -63 -124 17 0 vhcurveto
          -5 -151 rlineto
          0 58 -18 100 -7 vhcurveto
          hintmask 01111100
          -90 9 vlineto
          hintmask 10111010
          -72 callsubr
          hintmask 01011100
          -4 -78 rlineto
          hintmask 10011100
          0 60 -11 67 vhcurveto
          hintmask 10111010
          -30 callsubr
        </CharString>
        <CharString name="scircumflex">
          -75 -13 -19 callsubr
          -5 callsubr
          hstem
          19 453 vstem
          465 492 -105 callgsubr
          -387 222 -102 callgsubr
          endchar
        </CharString>
        <CharString name="scommaaccent">
          -75 -26 callgsubr
          32 -19 callsubr
          hstem
          19 453 vstem
          133 -88 callsubr
          312 537 -105 callgsubr
          endchar
        </CharString>
        <CharString name="section">
          31 -195 180 504 181 hstemhm
          22 551 -541 224 84 223 -201 211 hintmask 11100000
          552 629 rmoveto
          0 -162 41 -109 vhcurveto
          hintmask 11011000
          -142 -107 -44 -177 -40 0 -30 33 -39 hvcurveto
          -25 -30 -18 -35 -50 vvcurveto
          -106 45 -33 151 -30 vhcurveto
          102 -20 20 -6 -17 vvcurveto
          -24 -26 -4 -28 -53 -172 28 3 -7 vhcurveto
          -17 -160 rlineto
          0 144 -51 135 122 125 37 169 63 -10 19 -25 28 vhcurveto
          hintmask 11010100
          26 25 19 43 67 vvcurveto
          103 -56 29 -159 32 vhcurveto
          -91 18 -11 7 19 vvcurveto
          18 12 7 60 48 170 -20 0 vhcurveto
          -245 -202 rmoveto
          36 -7 25 -8 -20 vvcurveto
          -14 -2 -11 -7 -15 vhcurveto
          -14 7 -26 6 -26 8 rrcurveto
          -38 12 -7 3 15 vvcurveto
          13 5 14 6 10 vhcurveto
          12 -5 18 -4 18 -4 rrcurveto
          endchar
        </CharString>
        <CharString name="semicolon">
          -270 -103 296 72 199 hstem
          38 228 vstem
          13 -103 -14 callsubr
          3 72 rmoveto
          -36 callgsubr
          endchar
        </CharString>
        <CharString name="seven">
          -14 8 -21 462 210 hstemhm
          49 452 -234 234 hintmask 11100000
          49 449 rmoveto
          hintmask 11010000
          218 -25 hlineto
          -166 -391 224 -46 176 451 rlineto
          221 -452 vlineto
          endchar
        </CharString>
        <CharString name="seven.dnom">
          -174 -21 263 134 hstem
          170 138 vstem
          41 68 -67 callsubr
        </CharString>
        <CharString name="seven.numr">
          536 134 hstem
          171 138 vstem
          42 536 -67 callsubr
        </CharString>
        <CharString name="seven.pnum">
          -159 355 165 hstem
          -1 387 vstem
          203 355 rmoveto
          -189 -327 178 -46 194 380 rlineto
          158 -387 -165 vlineto
          endchar
        </CharString>
        <CharString name="seveninferior">
          11 -21 263 134 hstem
          170 138 vstem
          41 253 -67 callsubr
        </CharString>
        <CharString name="sevensuperior">
          536 134 hstem
          171 138 vstem
          42 536 -67 callsubr
        </CharString>
        <CharString name="six">
          -14 -13 178 97 177 50 183 hstem
          16 213 102 204 vstem
          518 638 rmoveto
          0 -138 34 -84 -157 -123 -72 -277 -221 82 -115 186 150 101 69 156 158 -70 69 -152 -48 -35 -19 1 vhcurveto
          43 4 18 25 54 hhcurveto
          84 112 -17 0 hvcurveto
          -216 -210 rmoveto
          29 16 -13 -35 -29 -12 -20 -35 -47 -8 28 57 0 22 12 35 hvcurveto
          endchar
        </CharString>
        <CharString name="six.dnom">
          -195 104 56 102 29 106 hstemhm
          20 -3 callgsubr
          310 183 -98 callgsubr
        </CharString>
        <CharString name="six.numr">
          273 104 56 102 29 106 hstemhm
          21 -3 callgsubr
          311 651 -98 callgsubr
        </CharString>
        <CharString name="six.pnum">
          -74 -9 153 54 145 33 139 -139 153 hstemhm
          12 164 124 164 hintmask 11011100
          12 264 rmoveto
          -197 77 -76 142 136 97 64 118 133 -81 37 -118 -32 -34 -6 -9 -23 vhcurveto
          hintmask 11101100
          27 3 11 21 56 hhcurveto
          29 38 -2 -9 114 hvcurveto
          12 150 rlineto
          hintmask 11011100
          11 -87 -61 3 -45 hhcurveto
          -126 -108 -68 -197 hvcurveto
          167 -77 rmoveto
          8 26 22 3 16 hhcurveto
          37 20 -9 -16 -23 -25 -6 -34 -29 -28 14 29 -5 hvcurveto
          endchar
        </CharString>
        <CharString name="sixinferior">
          -10 104 56 102 29 106 hstemhm
          20 -3 callgsubr
          310 368 -98 callgsubr
        </CharString>
        <CharString name="sixsuperior">
          273 104 56 102 29 106 hstemhm
          21 -3 callgsubr
          311 651 -98 callgsubr
        </CharString>
        <CharString name="slash">
          -14 697 -21 hstem
          15 520 vstem
          15 -30 rmoveto
          217 -44 303 750 -217 44 rlineto
          endchar
        </CharString>
        <CharString name="space">
          -349 endchar
        </CharString>
        <CharString name="sterling">
          -14 0 183 143 60 101 183 hstem
          95 201 vstem
          95 183 rmoveto
          -62 -183 371 hlineto
          121 16 -18 182 -118 -15 rlineto
          -93 143 137 60 -137 28 hlineto
          53 15 20 80 29 71 -4 0 vhcurveto
          6 166 rlineto
          0 -98 21 -78 -163 -63 -43 -200 vhcurveto
          -41 -62 -60 62 vlineto
          endchar
        </CharString>
        <CharString name="summation">
          4 -180 200 540 200 hstem
          18 540 vstem
          253 290 rmoveto
          -235 -300 rlineto
          -170 540 200 -281 vlineto
          186 219 rlineto
          107 vlineto
          -184 214 rlineto
          279 200 -540 -174 hlineto
          endchar
        </CharString>
        <CharString name="t">
          -193 -13 14 callsubr
          hintmask 01110000
          273 324 -62 callsubr
          hintmask 10110000
          -45 callsubr
          endchar
        </CharString>
        <CharString name="tbar">
          -194 -13 181 -160 -21 219 105 34 160 hstemhm
          49 224 hintmask 01111000
          273 345 rmoveto
          81 160 -81 100 -224 -100 -39 -160 39 -34 -37 -105 37 -38 hlineto
          -143 53 -38 120 46 86 18 0 vhcurveto
          hintmask 10111000
          -3 164 rlineto
          0 -25 -1 -20 -27 -6 9 29 vhcurveto
          64 105 -64 hlineto
          endchar
        </CharString>
        <CharString name="tcaron">
          -193 5 callsubr
          -170 -21 337 181 34 66 hstemhm
          49 224 38 43 hintmask 01111100
          311 539 rmoveto
          154 hlineto
          59 205 rlineto
          -194 hlineto
          -57 -420 -62 callsubr
          hintmask 10111100
          -45 callsubr
          endchar
        </CharString>
        <CharString name="tcedilla">
          -193 -30 callgsubr
          68 41 -21 28 -21 330 181 hstemhm
          49 224 -121 73 -26 164 hintmask 1010110010000000
          363 -123 rmoveto
          hintmask 0110110100000000
          -27 callgsubr
          hintmask 0101010100000000
          20 vlineto
          hintmask 0101011000000000
          46 1 83 17 0 vvcurveto
          -45 callsubr
          104 81 181 -81 100 -224 -100 -39 -181 39 -156 vlineto
          hintmask 0100110100000000
          -112 32 -47 71 -15 vhcurveto
          hintmask 0110110100000000
          -95 -78 callgsubr
        </CharString>
        <CharString name="tcommaaccent">
          -193 -26 callgsubr
          32 14 callsubr
          hintmask 10111000
          70 -88 callsubr
          183 369 -62 callsubr
          hintmask 11011000
          -45 callsubr
          endchar
        </CharString>
        <CharString name="thorn">
          5 -174 -21 182 181 -160 -21 34 -21 518 -20 205 -20 hstemhm
          27 224 76 226 hintmask 10011110
          251 703 rmoveto
          -224 -898 21 callgsubr
          hintmask 10101111
          16 callgsubr
          -37 -67 -16 0 hvcurveto
          32 -165 rmoveto
          hintmask 11001111
          1 callgsubr
          hintmask 10101111
          0 23 7 9 vhcurveto
          endchar
        </CharString>
        <CharString name="three">
          -14 5 callsubr
          65 177 61 191 hstemhm
          35 479 -228 228 hintmask 11110000
          45 472 rmoveto
          0 96 9 68 42 27 -6 -24 -22 -15 -9 -39 vhcurveto
          -132 -177 hlineto
          hintmask 11101000
          141 hlineto
          41 -4 12 -8 -21 vvcurveto
          -30 -27 -2 -42 -61 -115 10 0 vhcurveto
          -6 -175 rlineto
          0 120 -26 93 171 95 46 174 74 -25 29 -45 35 vhcurveto
          45 32 16 31 74 vvcurveto
          146 -91 44 -189 -70 -115 -29 0 vhcurveto
          endchar
        </CharString>
        <CharString name="three.dnom">
          -195 -63 callsubr
          87 -100 callsubr
        </CharString>
        <CharString name="three.numr">
          273 -63 callsubr
          555 -100 callsubr
        </CharString>
        <CharString name="three.pnum">
          -107 -8 168 30 144 32 164 hstemhm
          -1 426 -177 164 -150 163 hintmask 10110000
          -1 18 rmoveto
          -17 81 54 -9 83 hhcurveto
          hintmask 10100100
          117 91 52 119 54 -30 41 -33 14 hvcurveto
          hintmask 11101000
          32 21 18 38 57 vvcurveto
          104 -79 38 -123 -40 -43 -5 -16 -118 vhcurveto
          15 -154 rlineto
          6 52 85 5 50 hhcurveto
          25 12 -6 -10 -12 -11 -4 -25 hvcurveto
          -125 -144 hlineto
          hintmask 11100100
          126 hlineto
          38 11 -5 -10 hvcurveto
          hintmask 10100100
          -11 -9 -4 -36 -37 -43 1 10 -118 vhcurveto
          endchar
        </CharString>
        <CharString name="threeinferior">
          -10 -63 callsubr
          272 -100 callsubr
        </CharString>
        <CharString name="threequarters">
          1086 0 161 -113 113 112 111 38 102 36 110 21 -20 hstemhm
          184 140 -135 140 431 147 hintmask 1011010110000000
          760 hmoveto
          147 hlineto
          hintmask 0111010110000000
          48 15 vlineto
          hintmask 1011010110000000
          113 -15 73 vlineto
          -67 callgsubr
          hintmask 0111010110000000
          -37 callsubr
          -502 -43 -38 callgsubr
          hintmask 1011101010000000
          -512 -200 rmoveto
          0 55 5 40 24 16 -4 -14 -12 -9 -6 -22 vhcurveto
          -77 -102 hlineto
          hintmask 1011010110000000
          82 hlineto
          24 -2 7 -5 -12 vvcurveto
          -18 -16 -1 -24 -36 -67 6 0 vhcurveto
          -3 -101 rlineto
          0 78 -16 54 99 55 27 101 43 -15 17 -26 20 vhcurveto
          hintmask 1011101010000000
          26 18 10 18 43 vvcurveto
          85 -53 25 -110 -40 -75 -16 0 vhcurveto
          endchar
        </CharString>
        <CharString name="threesuperior">
          273 -63 callsubr
          555 -100 callsubr
        </CharString>
        <CharString name="tilde">
          -83 547 -33 callgsubr
          37 365 hintmask 10100000
          373 727 -51 callsubr
          hintmask 01100000
          -94 callgsubr
          hintmask 10100000
          -81 callgsubr
        </CharString>
        <CharString name="tilde.cap">
          -83 712 -2 callgsubr
          37 365 hintmask 10100000
          373 877 -18 callgsubr
          hintmask 01100000
          -79 callsubr
          hintmask 10100000
          -56 callgsubr
        </CharString>
        <CharString name="trademark">
          28 331 313 -79 79 hstemhm
          112 88 66 82 127 82 hintmask 01111000
          112 565 rmoveto
          -233 88 233 41 79 -200 -79 vlineto
          307 -234 rmoveto
          174 vlineto
          hintmask 10111000
          38 -153 rlineto
          55 hlineto
          34 153 rlineto
          -174 82 313 -102 vlineto
          -45 -158 rlineto
          hintmask 01111000
          -41 158 rlineto
          -103 -313 hlineto
          endchar
        </CharString>
        <CharString name="two">
          -14 0 180 301 193 hstemhm
          43 462 -229 229 hintmask 10100000
          501 hmoveto
          180 -205 vlineto
          67 47 rlineto
          hintmask 11010000
          109 76 33 56 115 vvcurveto
          132 -93 68 -150 -113 -104 -37 0 vhcurveto
          10 -171 rlineto
          0 79 15 64 61 17 -4 -36 -52 -53 -42 -93 -91 vhcurveto
          -87 -84 rlineto
          -172 vlineto
          endchar
        </CharString>
        <CharString name="two.dnom">
          -195 -7 callgsubr
          hstemhm
          44 -13 callgsubr
          302 -195 rmoveto
          -91 callgsubr
        </CharString>
        <CharString name="two.numr">
          273 -7 callgsubr
          hstemhm
          43 -13 callgsubr
          301 273 rmoveto
          -91 callgsubr
        </CharString>
        <CharString name="two.pnum">
          -103 0 158 207 164 hstemhm
          10 418 -200 196 hintmask 10100000
          428 hmoveto
          159 vlineto
          -158 -2 50 36 rlineto
          hintmask 11010000
          72 52 32 41 77 vvcurveto
          128 -93 38 -113 -38 -48 -5 -19 -122 vhcurveto
          8 -153 rlineto
          8 74 54 5 19 hhcurveto
          45 18 -5 -20 -14 -14 -17 -63 -53 hvcurveto
          -140 -116 rlineto
          -140 vlineto
          endchar
        </CharString>
        <CharString name="twoinferior">
          0 -7 callgsubr
          hstemhm
          44 -13 callgsubr
          302 hmoveto
          -91 callgsubr
        </CharString>
        <CharString name="twosuperior">
          273 -7 callgsubr
          hstemhm
          43 -13 callgsubr
          301 273 rmoveto
          -91 callgsubr
        </CharString>
        <CharString name="u">
          -76 callgsubr
          18 callsubr
          hintmask 01111000
          325 -9 callsubr
          hintmask 10111000
          -319 vlineto
          0 -22 -6 -22 -24 -10 18 61 vhcurveto
          246 -224 -261 vlineto
          hintmask 01111000
          -173 45 -84 145 50 64 37 0 vhcurveto
          hintmask 10111000
          -24 222 505 vlineto
          endchar
        </CharString>
        <CharString name="uacute">
          -76 callgsubr
          72 166 hstemhm
          23 224 -102 callsubr
          -320 218 -96 callsubr
          endchar
        </CharString>
        <CharString name="ubreve">
          -76 callgsubr
          63 125 hstemhm
          23 224 -102 callsubr
          -219 213 -99 callsubr
          -80 30 -80 130 130 30 80 80 vhcurveto
          endchar
        </CharString>
        <CharString name="ucircumflex">
          -76 callgsubr
          72 166 hstemhm
          23 224 -102 callsubr
          -433 52 -102 callgsubr
          endchar
        </CharString>
        <CharString name="udieresis">
          -76 callgsubr
          74 154 -10 callgsubr
          -143 -1 callsubr
          -153 224 hintmask 01110101
          325 -9 callsubr
          hintmask 10111001
          -319 vlineto
          0 -22 -6 -22 -24 -10 18 61 vhcurveto
          246 -224 -261 vlineto
          hintmask 01111001
          -173 45 -84 145 50 64 37 0 vhcurveto
          hintmask 10110101
          -24 222 505 vlineto
          hintmask 01110110
          -235 54 -87 callsubr
        </CharString>
        <CharString name="ugrave">
          -76 callgsubr
          72 166 hstemhm
          23 224 -102 callsubr
          -432 218 -83 callsubr
        </CharString>
        <CharString name="uhungarumlaut">
          -76 callgsubr
          74 166 hstemhm
          23 224 -102 callsubr
          -433 220 -60 callsubr
        </CharString>
        <CharString name="umacron">
          -76 callgsubr
          78 144 hstemhm
          128 119 -102 callsubr
          -421 58 -48 callgsubr
        </CharString>
        <CharString name="underscore">
          36 -185 127 hstem
          40 520 vstem
          40 -185 rmoveto
          520 127 -520 hlineto
          endchar
        </CharString>
        <CharString name="uni00A0">
          -349 endchar
        </CharString>
        <CharString name="uni1EAB">
          -73 callsubr
          24 141 -97 140 -20 callsubr
          hintmask 0010110001000000
          -106 callgsubr
          hintmask 0101110011000000
          -72 -3 rlineto
          -101 callgsubr
          hintmask 1001110011000000
          -105 callsubr
          -159 366 -102 callgsubr
          hintmask 0010111001000000
          240 204 -51 callsubr
          hintmask 0010110101000000
          -94 callgsubr
          hintmask 0010111001000000
          -81 callgsubr
        </CharString>
        <CharString name="uni1EB0">
          -70 callgsubr
          42 115 88 166 hstem
          -5 650 vstem
          -5 hmoveto
          -104 callsubr
          95 618 -99 callsubr
          -75 35 -75 125 125 35 75 75 vhcurveto
          -351 219 -83 callsubr
        </CharString>
        <CharString name="uni1EC5">
          -76 callsubr
          -5 callsubr
          24 141 -97 140 8 callsubr
          hintmask 11110010
          -107 callgsubr
          -213 248 -102 callgsubr
          hintmask 11111001
          237 204 -51 callsubr
          hintmask 11110101
          -94 callgsubr
          hintmask 11111001
          -81 callgsubr
        </CharString>
        <CharString name="uni1ED7">
          -64 callgsubr
          -5 callsubr
          24 -33 callgsubr
          -48 callsubr
          hintmask 11100110
          -107 callsubr
          -175 389 -102 callgsubr
          hintmask 11110110
          237 204 -51 callsubr
          hintmask 11101110
          -94 callgsubr
          hintmask 11110110
          -81 callgsubr
        </CharString>
        <CharString name="uni1EF8">
          26 21 -21 712 -33 callgsubr
          178 232 hintmask 10110000
          -92 callgsubr
          hintmask 11010000
          38 892 -51 callsubr
          hintmask 10110000
          -94 callgsubr
          hintmask 11010000
          -81 callgsubr
        </CharString>
        <CharString name="uni1EF9">
          -68 callsubr
          62 -33 callgsubr
          1 545 hintmask 10110110
          -81 callsubr
          hintmask 11011010
          -66 callsubr
          425 222 -51 callsubr
          hintmask 10110110
          -94 callgsubr
          hintmask 10111010
          -81 callgsubr
        </CharString>
        <CharString name="uogonek">
          13 -219 115 -94 -21 227 -21 34 -21 505 -20 18 callsubr
          hintmask 10011110
          535 -100 rmoveto
          -65 callsubr
          33 71 44 9 5 vhcurveto
          2 -18 callsubr
          -319 hlineto
          0 -22 -6 -22 -24 -10 18 61 vhcurveto
          246 -224 -261 vlineto
          hintmask 01101110
          -173 45 -84 145 50 64 37 0 vhcurveto
          -15 vlineto
          -33 -20 -37 -36 -56 vvcurveto
          -66 callgsubr
          endchar
        </CharString>
        <CharString name="uring">
          -76 callgsubr
          58 77 43 78 -10 callgsubr
          -90 104 61 103 -100 224 hintmask 0111110010000000
          325 -9 callsubr
          hintmask 1011110010000000
          -319 vlineto
          0 -22 -6 -22 -24 -10 18 61 vhcurveto
          246 -224 -261 vlineto
          hintmask 0111110010000000
          -173 45 -84 145 50 64 37 0 vhcurveto
          hintmask 1011110010000000
          -24 222 505 vlineto
          -392 137 rmoveto
          -69 55 -30 79 83 51 35 64 69 -56 30 -78 -79 -55 -30 -69 vhcurveto
          hintmask 0111101100000000
          104 -16 callgsubr
        </CharString>
        <CharString name="utilde">
          -76 callgsubr
          62 141 -97 140 18 callsubr
          hintmask 01101110
          325 -9 callsubr
          hintmask 10101110
          -319 vlineto
          0 -22 -6 -22 -24 -10 18 61 vhcurveto
          246 -224 -261 vlineto
          hintmask 01101110
          -173 45 -84 145 50 64 37 0 vhcurveto
          hintmask 10110110
          -24 222 505 vlineto
          -104 222 -51 callsubr
          hintmask 01101110
          -94 callgsubr
          hintmask 01110110
          -81 callgsubr
        </CharString>
        <CharString name="v">
          -17 0 187 318 -20 hstem
          1 545 vstem
          1 -9 callsubr
          85 -505 rlineto
          375 hlineto
          85 505 rlineto
          -224 hlineto
          -34 -318 rlineto
          -13 hlineto
          -36 318 rlineto
          endchar
        </CharString>
        <CharString name="w">
          -28 callsubr
          hstem
          10 771 -98 callsubr
          endchar
        </CharString>
        <CharString name="wacute">
          -28 callsubr
          72 166 hstem
          10 771 -98 callsubr
          89 218 -96 callsubr
          endchar
        </CharString>
        <CharString name="wcircumflex">
          -28 callsubr
          72 166 hstem
          10 771 -98 callsubr
          -37 52 -102 callgsubr
          endchar
        </CharString>
        <CharString name="wdieresis">
          -28 callsubr
          74 154 hstem
          208 -1 callsubr
          -98 callsubr
          161 54 -87 callsubr
        </CharString>
        <CharString name="wgrave">
          -28 callsubr
          72 166 hstem
          10 771 -98 callsubr
          -30 218 -83 callsubr
        </CharString>
        <CharString name="x">
          -26 21 -21 505 -20 hstem
          -1 540 vstem
          98 250 rmoveto
          -99 -250 rlineto
          222 hlineto
          33 127 40 -127 rlineto
          242 hlineto
          -86 254 89 251 rlineto
          -220 hlineto
          -40 -142 -40 142 rlineto
          -240 hlineto
          endchar
        </CharString>
        <CharString name="y">
          -68 callsubr
          hstemhm
          1 545 hintmask 10111000
          -81 callsubr
          hintmask 11011000
          -66 callsubr
          endchar
        </CharString>
        <CharString name="yacute">
          -86 callsubr
          222 218 -96 callsubr
          endchar
        </CharString>
        <CharString name="ycircumflex">
          -86 callsubr
          105 52 -102 callgsubr
          endchar
        </CharString>
        <CharString name="ydieresis">
          -68 callsubr
          74 154 hstemhm
          86 -1 callsubr
          hintmask 10111110
          -81 callsubr
          hintmask 11011110
          -66 callsubr
          295 54 -87 callsubr
        </CharString>
        <CharString name="yen">
          17 0 207 -60 60 92 60 hstemhm
          174 226 hintmask 10110000
          48 299 rmoveto
          102 hlineto
          24 -62 rlineto
          -30 -126 vlineto
          hintmask 01110000
          -60 126 vlineto
          hintmask 10110000
          -147 226 vlineto
          hintmask 01110000
          147 128 vlineto
          hintmask 10110000
          60 -128 30 vlineto
          24 62 rlineto
          104 60 -80 hlineto
          118 298 rlineto
          -236 hlineto
          -41 -207 -37 207 rlineto
          -236 hlineto
          112 -298 rlineto
          -80 hlineto
          endchar
        </CharString>
        <CharString name="ygrave">
          -86 callsubr
          114 218 -83 callsubr
        </CharString>
        <CharString name="z">
          -38 callsubr
          hstemhm
          24 454 hintmask 11010000
          24 310 rmoveto
          148 hlineto
          -148 -127 rlineto
          -183 454 195 -156 vlineto
          hintmask 10110000
          153 137 rlineto
          hintmask 11010000
          173 -451 vlineto
          endchar
        </CharString>
        <CharString name="zacute">
          -38 callsubr
          52 166 hstemhm
          24 454 -75 callsubr
          165 218 -96 callsubr
          endchar
        </CharString>
        <CharString name="zcaron">
          -38 callsubr
          52 166 hstemhm
          24 454 -75 callsubr
          142 52 -85 callgsubr
        </CharString>
        <CharString name="zdotaccent">
          -38 callsubr
          58 153 hstemhm
          158 186 -75 callsubr
          134 58 -54 callgsubr
        </CharString>
        <CharString name="zero">
          -14 -13 188 309 188 hstem
          13 227 68 227 vstem
          274 672 rmoveto
          -195 -66 -106 -236 -236 61 -107 200 200 61 107 236 236 -60 106 -201 hvcurveto
          -188 vmoveto
          -17 callgsubr
          endchar
        </CharString>
        <CharString name="zero.dnom">
          -187 -56 callsubr
          210 -97 callsubr
        </CharString>
        <CharString name="zero.numr">
          273 -56 callsubr
          670 -97 callsubr
        </CharString>
        <CharString name="zero.pnum">
          -46 -8 156 224 157 hstem
          13 164 139 164 vstem
          13 254 rmoveto
          -209 93 -53 141 141 92 53 209 207 -93 68 -140 -140 -94 -68 -207 vhcurveto
          164 hmoveto
          96 24 22 46 46 23 -22 -96 -85 -23 -21 -46 -46 -24 21 85 vhcurveto
          endchar
        </CharString>
        <CharString name="zero.slash">
          -14 9 -21 22 -21 31 -21 310 40 hstemhm
          14 227 7 68 -65 46 12 227 hintmask 00110100
          78 -65 rmoveto
          68 hlineto
          30 64 rlineto
          hintmask 10010100
          21 -6 24 -3 27 -2 rrcurveto
          hintmask 01010100
          -53 68 54 vlineto
          hintmask 01010001
          167 14 53 108 219 vvcurveto
          147 -24 96 -66 52 vhcurveto
          50 106 rlineto
          -68 hlineto
          hintmask 00110100
          -36 -76 -22 8 -26 4 -28 3 rlinecurve
          61 -68 -60 vlineto
          hintmask 00111001
          -175 -10 -59 -106 -225 vvcurveto
          -158 27 -100 78 -49 vhcurveto
          156 461 rmoveto
          -17 callgsubr
          hintmask 00110010
          -24 -175 rmoveto
          46 40 -46 hlineto
          endchar
        </CharString>
        <CharString name="zeroinferior">
          -10 -56 callsubr
          387 -97 callsubr
        </CharString>
        <CharString name="zerosuperior">
          273 -56 callsubr
          670 -97 callsubr
        </CharString>
      <CharString index="0">
        288 -79 callgsubr
        289 hlineto
        10 99 rlineto
        159 -88 73 -173 -186 -76 -99 -176 -177 67 -79 190 123 133 29 0 vhcurveto
        -5 145 rlineto
        0 -143 -9 -92 vhcurveto
        -50 157 rmoveto
        37 1 8 16 30 hhcurveto
        27 10 -15 -38 hvcurveto
        return
      </CharString>
      <CharString index="1">
        518 342 rmoveto
        145 -100 31 -145 -109 -132 -35 0 vhcurveto
        5 -152 rlineto
        0 125 13 89 26 17 -5 -14 vhcurveto
        -9 vlineto
        return
      </CharString>
      <CharString index="2">
        rmoveto
        0 -94 26 -128 -130 -94 -39 -145 -105 44 -42 112 -15 vhcurveto
        60 -8 13 -2 -5 vvcurveto
        -7 -10 -2 -24 -63 -124 17 0 vhcurveto
        -5 -151 rlineto
        0 87 -27 141 146 76 48 128 110 -42 42 -122 13 vhcurveto
        -57 6 -8 2 5 vvcurveto
        6 9 2 23 58 124 -14 0 vhcurveto
        return
      </CharString>
      <CharString index="3">
        -166 -99 -44 -191 -140 53 -52 188 -29 hvcurveto
        70 -11 7 -2 -14 vvcurveto
        -16 -12 -7 -40 -98 -153 22 0 vhcurveto
        -10 -177 rlineto
        0 139 -36 143 171 94 59 171 157 -56 25 -191 43 vhcurveto
        -64 14 -7 5 14 vvcurveto
        14 10 4 41 98 141 -15 0 vhcurveto
        return
      </CharString>
      <CharString index="4">
        -73 callsubr
        -20 callsubr
        hintmask 00101101
        -106 callgsubr
        hintmask 01011111
        -96 callgsubr
        return
      </CharString>
      <CharString index="5">
        rmoveto
        162 hlineto
        12 72 15 -72 rlineto
        162 hlineto
        -102 166 rlineto
        -158 hlineto
        return
      </CharString>
      <CharString index="6">
        -130 -5 -82 -20 -131 vvcurveto
        -119 59 -51 126 82 62 35 0 0 23 -35 74 25 78 12 0 vhcurveto
        return
      </CharString>
      <CharString index="7">
        rmoveto
        169 hlineto
        12 62 15 -62 rlineto
        169 hlineto
        -112 136 rlineto
        -152 hlineto
        endchar
      </CharString>
      <CharString index="8">
        -7 -13 154 -133 -21 33 -21 193 122.5 29.5 174 return
      </CharString>
      <CharString index="9">
        rmoveto
        0 -80 19 -48 -91 -71 -41 -161 -128 42 -67 113 91 64 35 96 vhcurveto
        hintmask 11111000
        96 -46 35 -93 -27 -21 -11 1 vhcurveto
        hintmask 10111000
        25 3 10 14 31 hhcurveto
        49 65 -9 0 hvcurveto
        hintmask 11111000
        -125 -122 rmoveto
        17 9 -8 -20 -17 -7 -11 -20 -28 -4 16 33 0 13 7 20 hvcurveto
        endchar
      </CharString>
      <CharString index="10">
        vstem
        85 hmoveto
        331 hlineto
        34 413 10 -1 33 -412 rlineto
        339 hlineto
        74 670 rlineto
        -233 hlineto
        -20 -436 rlineto
        -18 hlineto
        -50 426 rlineto
        -253 hlineto
        -45 -426 rlineto
        -18 hlineto
        -32 436 rlineto
        -231 hlineto
        return
      </CharString>
      <CharString index="11">
        -72 -3 rlineto
        -101 callgsubr
        hintmask 10011111
        -105 callsubr
        return
      </CharString>
      <CharString index="12">
        rmoveto
        -43 -136 rlineto
        176 -6 callsubr
        136 rlineto
        return
      </CharString>
      <CharString index="13">
        -28 -58 43 -61 hhcurveto
        -53 -54 -64 0 hvcurveto
        29 -116 rlineto
        0 52 40 28 vhcurveto
        return
      </CharString>
      <CharString index="14">
        hstem
        16 226 vstem
        266 518 rmoveto
        -178 -72 -61 -204 -191 54 -75 196 87 96 28 0 hvcurveto
        -7 175 rlineto
        0 -105 -7 -38 -43 -14 17 53 52 15 18 42 38 103 -8 0 vhcurveto
        7 177 rlineto
        0 -104 26 -77 vhcurveto
        return
      </CharString>
      <CharString index="15">
        410 210 rmoveto
        196 460 rlineto
        -245 hlineto
        -65 -197 -63 197 rlineto
        -246 hlineto
        191 -460 rlineto
        -210 232 vlineto
        return
      </CharString>
      <CharString index="16">
        117 -108 vlineto
        hintmask 11010000
        20 15 rlineto
        68 65 27 18 67 vvcurveto
        78 -40 41 -101 -56 -66 -16 0 vhcurveto
        6 -103 rlineto
        0 47 5 38 36 10 -8 -15 -31 -28 -17 -56 -54 vhcurveto
        hintmask 10100000
        -55 -50 rlineto
        -112 vlineto
        endchar
      </CharString>
      <CharString index="17">
        rmoveto
        152 hlineto
        112 136 -6 callgsubr
        -13 -62 -14 62 -6 callgsubr
        return
      </CharString>
      <CharString index="18">
        rmoveto
        hintmask 11111000
        -8 -253 87 -11 rlineto
        0 26 7 21 19 7 -4 -12 -11 -10 -5 -17 -54 -79 12 0 vhcurveto
        -11 -97 rlineto
        0 95 -23 62 93 61 31 105 103 -40 23 -92 -27 -33 -9 0 vhcurveto
        return
      </CharString>
      <CharString index="19">
        136 hstemhm
        18 234 hintmask 10110000
        516 189 rmoveto
        0 -85 -6 -71 -88 -20 19 135 vhcurveto
        hintmask 11110000
        132 19 18 89 71 82 -10 0 vhcurveto
        6 179 rlineto
        0 -130 27 -75 -232 -64 -82 -264 -272 66 -78 220 109 106 26 0 vhcurveto
        hintmask 10110000
        return
      </CharString>
      <CharString index="20">
        6 4 6 0 vhcurveto
        -2 12 15 -1 11 hhcurveto
        167 75 31 150 12 -5 18 -4 11 hvcurveto
        47 131 hlineto
        -185 -3 rlineto
        return
      </CharString>
      <CharString index="21">
        rmoveto
        161 144 -161 hlineto
        -207 -144 rmoveto
        161 144 -161 hlineto
        endchar
      </CharString>
      <CharString index="22">
        rmoveto
        158 hlineto
        102 166 rlineto
        -162 hlineto
        -13 -72 -14 72 rlineto
        -162 hlineto
        endchar
      </CharString>
      <CharString index="23">
        14 15 7 16 16 14 -7 -14 -15 -14 -7 -16 -16 -15 7 15 vhcurveto
        return
      </CharString>
      <CharString index="24">
        0 -60 11 -43 -176 -72 -47 -133 -94 43 -39 38 -18 vhcurveto
        hintmask 1100111000000000
        0 -58 -48 -25 vvcurveto
        -31 14 -29 22 -15 vhcurveto
        -50 -39 -14 -35 -46 vvcurveto
        return
      </CharString>
      <CharString index="25">
        273 106 29 102 0 -20 27 -20 69 -13 callsubr
        hintmask 10011110
        33 292 rmoveto
        0 85 -19 48 91 71 41 161 131 -44 64 -111 -89 -61 -37 -94 vhcurveto
        hintmask 11001110
        -93 46 -38 88 27 21 11 -1 vhcurveto
        hintmask 10101110
        -25 -3 -10 -14 -31 hhcurveto
        -49 -70 9 0 hvcurveto
        130 122 rmoveto
        -17 -9 8 20 17 7 11 20 hvcurveto
        hintmask 10011110
        28 4 -16 -33 hvcurveto
        hintmask 10101110
        0 -13 -7 -20 vhcurveto
        endchar
      </CharString>
      <CharString index="26">
        33 64 -44 52 hhcurveto
        54 53 63 0 hvcurveto
        endchar
      </CharString>
      <CharString index="27">
        rmoveto
        -59 13 -27 43 -24 vhcurveto
        -43 -24 -13 -22 -70 vvcurveto
        hintmask 10110000
        -29 3 -19 -33 vvcurveto
        -50 -10 -8 -61 -5 vhcurveto
        -180 vlineto
        178 120 13 162 hvcurveto
        37 -13 88 28 vvcurveto
        16 15 13 29 5 vhcurveto
        169 vlineto
        -29 6 -15 14 20 25 13 88 39 vvcurveto
        155 -118 17 -180 vhcurveto
        -180 vlineto
        61 -5 10 -12 -50 vvcurveto
        hintmask 01010000
        -33 -3 -35 -30 vvcurveto
        endchar
      </CharString>
      <CharString index="28">
        152 rmoveto
        -34 -14 10 25 -1 hvcurveto
        return
      </CharString>
      <CharString index="29">
        9 vlineto
        hintmask 1010110010000000
        -72 callsubr
        hintmask 0100110100000000
        -4 -78 rlineto
        hintmask 1000110100000000
        0 60 -11 67 vhcurveto
        hintmask 1010110010000000
        -30 callsubr
      </CharString>
      <CharString index="30">
        97 0 189 81 137 74 189 hstem
        37 232 142 234 vstem
        -1 270 rmoveto
        38 -270 293 hlineto
        233 82 122 223 223 -92 102 -233 hvcurveto
        -283 -263 -38 hlineto
        412 -62 rmoveto
        -98 -6 -58 -95 vhcurveto
        -41 81 55 137 -55 74 41 hlineto
        90 11 -43 -93 hvcurveto
        endchar
      </CharString>
      <CharString index="31">
        13 0 180 -172 -21 518 -20 return
      </CharString>
      <CharString index="32">
        rmoveto
        hintmask 10011100
        0 85 -19 48 91 71 41 161 131 -44 64 -111 -89 -61 -37 -94 vhcurveto
        hintmask 10111100
        -93 46 -38 88 27 21 11 -1 vhcurveto
        hintmask 10011100
        -25 -3 -10 -14 -31 hhcurveto
        -49 -70 9 0 hvcurveto
        hintmask 10111100
        130 122 rmoveto
        -17 -9 8 20 17 7 11 20 28 4 -16 -33 0 -13 -7 -20 hvcurveto
        endchar
      </CharString>
      <CharString index="33">
        rmoveto
        -69 55 -30 79 83 51 35 64 69 -56 30 -78 -79 -55 -30 -69 vhcurveto
        -58 callsubr
        return
      </CharString>
      <CharString index="34">
        rmoveto
        104 -136 rlineto
        172 hlineto
        -34 136 rlineto
        return
      </CharString>
      <CharString index="35">
        318 vlineto
        0 24 7 19 24 12 20 callgsubr
        253 vlineto
        return
      </CharString>
      <CharString index="36">
        -2 -220 154 31 173 19 146 72 143 -139 131 return
      </CharString>
      <CharString index="37">
        75 21 -21 77 177 234 182 return
      </CharString>
      <CharString index="38">
        98 203 96 hstemhm
        12 139 -132 137 37 137 -133 139 hintmask 11011000
        174 return
      </CharString>
      <CharString index="39">
        212 -74 rmoveto
        35 62 rlineto
        11 12 -1 12 hhcurveto
        173 94 71 195 79 -16 59 -31 42 hvcurveto
        64 113 rlineto
        0 -217 44 -1 vvcurveto
        -1 -21 -36 -20 -35 vhcurveto
        1 -9 -8 0 -9 hhcurveto
        -173 -94 -73 -192 -76 14 -57 28 -42 hvcurveto
        -62 -108 rlineto
        return
      </CharString>
      <CharString index="40">
        -147 -18 rlineto
        -55 -29 vlineto
        78 236 rlineto
        -158 hlineto
        return
      </CharString>
      <CharString index="41">
        -90 67 -26 88 87 49 15 0 vhcurveto
        return
      </CharString>
      <CharString index="42">
        70 9 callgsubr
        26 226 130 226 vstem
        252 0 callsubr
        -226 -430 hlineto
        -194 97 -59 194 194 97 63 194 vhcurveto
        426 -226 -439 vlineto
        -38 -17 -15 -48 -48 -17 15 38 vhcurveto
        return
      </CharString>
      <CharString index="43">
        0 -13 181 169 181 return
      </CharString>
      <CharString index="44">
        351 0 234 178.5 247.5 return
      </CharString>
      <CharString index="45">
        rmoveto
        -72 -8 -6 -81 -38 vhcurveto
        72 -170 rlineto
        198 62 43 30 201 vvcurveto
        return
      </CharString>
      <CharString index="46">
        hstem
        -50 callsubr
        return
      </CharString>
      <CharString index="47">
        rmoveto
        -33 -136 rlineto
        131 hlineto
        89 136 rlineto
        28 hmoveto
        -33 -136 rlineto
        131 hlineto
        89 136 rlineto
        endchar
      </CharString>
      <CharString index="48">
        -196 21 -21 458 47 13 -20 59 166 -24 callgsubr
        0 106 hintmask 11011000
        252 274 rmoveto
        hintmask 10110100
        -12 callgsubr
        hintmask 11011000
        -44 callgsubr
        return
      </CharString>
      <CharString index="49">
        106 -13 188 320 188 return
      </CharString>
      <CharString index="50">
        hstem
        -41 callsubr
        79 224 vstem
        252 hmoveto
        319 vlineto
        0 24 6 17 27 11 20 callgsubr
        261 vlineto
        190 -51 67 -145 -37 -70 -17 0 vhcurveto
        189 -224 -690 vlineto
        return
      </CharString>
      <CharString index="51">
        33 64 -34 52 hhcurveto
        54 53 58 0 hvcurveto
        endchar
      </CharString>
      <CharString index="52">
        rmoveto
        176 hlineto
        75 281 rlineto
        -230 hlineto
        return
      </CharString>
      <CharString index="53">
        rmoveto
        186 153 -186 hlineto
        endchar
      </CharString>
      <CharString index="54">
        rmoveto
        160 -74 161 235 rlineto
        21 vlineto
        -159 230 -162 -74 114 -169 rlineto
        return
      </CharString>
      <CharString index="55">
        hstemhm
        -5 callgsubr
        -234 552 -234 234 return
      </CharString>
      <CharString index="56">
        -284 21 -21 505 -20 return
      </CharString>
      <CharString index="57">
        147 hlineto
        hintmask 01100000
        48 15 vlineto
        hintmask 10100000
        113 -15 73 vlineto
        -67 callgsubr
        hintmask 01100000
        -37 callsubr
        endchar
      </CharString>
      <CharString index="58">
        -41 callgsubr
        vlineto
        return
      </CharString>
      <CharString index="59">
        rmoveto
        327 144 -327 hlineto
        endchar
      </CharString>
      <CharString index="60">
        152 67 168 -168 178 146 181 -38 25 85 152 hstemhm
        23 157 59 0 callgsubr
        76 167 hintmask 1100111111000000
        1008 return
      </CharString>
      <CharString index="61">
        -61 callgsubr
        131 232 vstem
        393 hmoveto
        232 670 -232 -247 -131 247 -232 -670 232 234 131 hlineto
        return
      </CharString>
      <CharString index="62">
        rmoveto
        -37 vlineto
        0 -17 -15 -21 -16 -6 8 14 16 10 11 16 1 vhcurveto
        endchar
      </CharString>
      <CharString index="63">
        -43 -63 -60 0 hvcurveto
        47 -224 -505 224 vlineto
        return
      </CharString>
      <CharString index="64">
        1 1 216 -45 0 vvcurveto
        16 41 rlineto
        19 hlineto
        223 96 104 244 128 -27 90 -58 56 hvcurveto
        29 71 rlineto
        0 -217 43 1 vvcurveto
        return
      </CharString>
      <CharString index="65">
        2 -22 rlineto
        221 hlineto
        -255 168 rmoveto
        -40 -5 39 45 45 5 40 39 10 22 -3 0 hvcurveto
        -163 vlineto
        0 -24 -3 -7 vhcurveto
        endchar
      </CharString>
      <CharString index="66">
        -47 -63 -37 callgsubr
        return
      </CharString>
      <CharString index="67">
        233 hlineto
        -117 346 107 324 rlineto
        -230 hlineto
        -75 -237 rlineto
        -40 237 -232 -670 232 223 41 hlineto
        endchar
      </CharString>
      <CharString index="68">
        -161 -60 -105 -161 -161 43 -104 155 50 55 35 0 hvcurveto
        return
      </CharString>
      <CharString index="69">
        rmoveto
        147 -64 303 750 -147 64 rlineto
        return
      </CharString>
      <CharString index="70">
        -39 0 hvcurveto
        26 -223 -505 return
      </CharString>
      <CharString index="71">
        228 199 -228 hlineto
        return
      </CharString>
      <CharString index="72">
        hstem
        62 232 vstem
        294 0 callsubr
        -232 -348 hlineto
        -141 -4 -3 -43 vhcurveto
        -191 vlineto
        173 106 12 178 hvcurveto
        return
      </CharString>
      <CharString index="73">
        rmoveto
        138 -481 232 481 10 callgsubr
        hlineto
        return
      </CharString>
      <CharString index="74">
        141 -97 140 hstemhm
        return
      </CharString>
      <CharString index="75">
        -13 154 -154 165 35 122 -117 122.5 29.5 174 -156 156 return
      </CharString>
      <CharString index="76">
        -24 callgsubr
        79 224 return
      </CharString>
      <CharString index="77">
        -231 88 -56 -21 119 return
      </CharString>
      <CharString index="78">
        -99 -13 196 140 195 return
      </CharString>
      <CharString index="79">
        -31 -13 196 304 196 return
      </CharString>
      <CharString index="80">
        75 -38 14 -100 1 vhcurveto
        return
      </CharString>
      <CharString index="81">
        -260 215 return
      </CharString>
      <CharString index="82">
        rmoveto
        180 143 -180 hlineto
        endchar
      </CharString>
      <CharString index="83">
        hstemhm
        -41 callsubr
        return
      </CharString>
      <CharString index="84">
        rmoveto
        -228 -198 228 hlineto
        -7 -46 rmoveto
        -214 hlineto
        -14 -426 rlineto
        242 hlineto
        endchar
      </CharString>
      <CharString index="85">
        108 32 122 17 118 hstemhm
        return
      </CharString>
      <CharString index="86">
        -278 21 -21 11 callsubr
        30 226 vstem
        30 hmoveto
        226 670 -226 hlineto
        return
      </CharString>
      <CharString index="87">
        0 189 292 189 return
      </CharString>
      <CharString index="88">
        136 hstemhm
        -5 callgsubr
        return
      </CharString>
      <CharString index="89">
        rmoveto
        0 -56 -23 -26 vhcurveto
        return
      </CharString>
      <CharString index="90">
        28 6 -20 -134 -134 -7 -21 -27 -27 -7 21 134 134 6 20 28 hvcurveto
        return
      </CharString>
      <CharString index="91">
        hmoveto
        -84 callgsubr
        endchar
      </CharString>
      <CharString index="92">
        189 -218 481 -232 -670 vlineto
        return
      </CharString>
      <CharString index="93">
        rmoveto
        -176 hlineto
        -75 -281 rlineto
        230 hlineto
        return
      </CharString>
      <CharString index="94">
        258 -119 126 hintmask 10100000
        return
      </CharString>
      <CharString index="95">
        0 68 36 38 vhcurveto
        208 vlineto
        return
      </CharString>
      <CharString index="96">
        5 callsubr
        535 return
      </CharString>
      <CharString index="97">
        hstemhm
        23 224 return
      </CharString>
      <CharString index="98">
        166 rlineto
        endchar
      </CharString>
      <CharString index="99">
        0 168 -160 -21 350 181 return
      </CharString>
      <CharString index="100">
        117 170 114 return
      </CharString>
      <CharString index="101">
        rlineto
        -169 hlineto
        return
      </CharString>
      <CharString index="102">
        16 234 return
      </CharString>
      <CharString index="103">
        -68 -3 rlineto
        -139 -7 -71 -14 -135 vvcurveto
        -119 70 -51 109 return
      </CharString>
      <CharString index="104">
        123 59 128 hintmask 10111000
        return
      </CharString>
      <CharString index="105">
        142 -108 140 hstemhm
        return
      </CharString>
      <CharString index="106">
        -5 callgsubr
        170 234 return
      </CharString>
      <CharString index="107">
        226 76 224 return
      </CharString>
      <CharString index="108">
        30 14 -15 -66 -46 -7 -42 -37 -19 -13 3 0 hvcurveto
        159 vlineto
        return
      </CharString>
      <CharString index="109">
        rmoveto
        64 -510 -64 -181 289 872 -289 hlineto
        endchar
      </CharString>
      <CharString index="110">
        -61 callgsubr
        164 232 vstem
        return
      </CharString>
      <CharString index="111">
        16 77 rlineto
        127 hlineto
        -59 408 rmoveto
        59 -229 -96 hlineto
        return
      </CharString>
      <CharString index="112">
        3 2 0 flex1
        endchar
      </CharString>
      <CharString index="113">
        -88 -20 19 135 132 19 18 89 71 82 -10 0 return
      </CharString>
      <CharString index="114">
        0 -76 -14 -67 -47 -16 11 24 28 7 7 46 34 vhcurveto
        return
      </CharString>
      <CharString index="115">
        368 496 rmoveto
        -228 -180 228 hlineto
        endchar
      </CharString>
      <CharString index="116">
        -11 callgsubr
        136 hstem
        return
      </CharString>
      <CharString index="117">
        130 189 -500 return
      </CharString>
      <CharString index="118">
        hstem
        147 232 vstem
        return
      </CharString>
      <CharString index="119">
        161 46 161 return
      </CharString>
      <CharString index="120">
        10 callsubr
        -31 callgsubr
        return
      </CharString>
      <CharString index="121">
        106 -13 188 -164 -21 505 188 18 -21 return
      </CharString>
      <CharString index="122">
        hhcurveto
        123 133 29 0 hvcurveto
        -5 145 rlineto
        return
      </CharString>
      <CharString index="123">
        163 57 86 175 171 -52 99 -146 return
      </CharString>
      <CharString index="124">
        53 21 -23 callsubr
        return
      </CharString>
      <CharString index="125">
        -116 -120 -164 vhcurveto
        62 hmoveto
        122 return
      </CharString>
      <CharString index="126">
        269 557 166 hstem
        return
      </CharString>
      <CharString index="127">
        -26 -61 vhcurveto
        -238 224 return
      </CharString>
      <CharString index="128">
        224 195 hlineto
        0 50 -13 32 vhcurveto
        return
      </CharString>
      <CharString index="129">
        rmoveto
        226 153 -226 hlineto
        endchar
      </CharString>
      <CharString index="130">
        rmoveto
        205 200 -205 hlineto
        endchar
      </CharString>
</ttFont>
